solid OpenSCAD_Model
  facet normal 1 -0 0
    outer loop
      vertex 75 5 6
      vertex 75 75 3
      vertex 75 75 6
    endloop
  endfacet
  facet normal 1 0 0
    outer loop
      vertex 75 75 3
      vertex 75 5 6
      vertex 75 5 3
    endloop
  endfacet
  facet normal 0 0 1
    outer loop
      vertex 75 75 6
      vertex 72 72 6
      vertex 75 5 6
    endloop
  endfacet
  facet normal 0 0 1
    outer loop
      vertex 75 75 6
      vertex 8 72 6
      vertex 72 72 6
    endloop
  endfacet
  facet normal 0 0 1
    outer loop
      vertex 8 72 6
      vertex 5 75 6
      vertex 8 8 6
    endloop
  endfacet
  facet normal -0 0 1
    outer loop
      vertex 5 75 6
      vertex 8 72 6
      vertex 75 75 6
    endloop
  endfacet
  facet normal -0 0 1
    outer loop
      vertex 72 8 6
      vertex 75 5 6
      vertex 72 72 6
    endloop
  endfacet
  facet normal -0 0 1
    outer loop
      vertex 8 8 6
      vertex 75 5 6
      vertex 72 8 6
    endloop
  endfacet
  facet normal 0 0 1
    outer loop
      vertex 8 8 6
      vertex 5 5 6
      vertex 75 5 6
    endloop
  endfacet
  facet normal 0 0 1
    outer loop
      vertex 5 5 6
      vertex 8 8 6
      vertex 5 75 6
    endloop
  endfacet
  facet normal 0 0 -1
    outer loop
      vertex 80 -16 0
      vertex 50 80 0
      vertex 80 80 0
    endloop
  endfacet
  facet normal 0 0 -1
    outer loop
      vertex 45.8689 81.2475 0
      vertex 49.7815 82.0791 0
      vertex 50 80 0
    endloop
  endfacet
  facet normal -0 0 -1
    outer loop
      vertex 49.7815 82.0791 0
      vertex 45.8689 81.2475 0
      vertex 49.1355 84.0674 0
    endloop
  endfacet
  facet normal 0 0 -1
    outer loop
      vertex 46 80 0
      vertex 50 80 0
      vertex 80 -16 0
    endloop
  endfacet
  facet normal 0 0 -1
    outer loop
      vertex 45.8689 81.2475 0
      vertex 50 80 0
      vertex 46 80 0
    endloop
  endfacet
  facet normal 0 0 -1
    outer loop
      vertex 45.4813 82.4404 0
      vertex 49.1355 84.0674 0
      vertex 45.8689 81.2475 0
    endloop
  endfacet
  facet normal 0 0 -1
    outer loop
      vertex 80 -16 0
      vertex 34 80 0
      vertex 46 80 0
    endloop
  endfacet
  facet normal 0 0 -1
    outer loop
      vertex 35.1459 83.5267 0
      vertex 31.9098 85.8779 0
      vertex 33.3087 87.4314 0
    endloop
  endfacet
  facet normal 0 0 -1
    outer loop
      vertex 34.1311 81.2475 0
      vertex 30.8645 84.0674 0
      vertex 31.9098 85.8779 0
    endloop
  endfacet
  facet normal 0 0 -1
    outer loop
      vertex 0 -16 0
      vertex 34 80 0
      vertex 80 -16 0
    endloop
  endfacet
  facet normal 0 -0 -1
    outer loop
      vertex 30.2185 82.0791 0
      vertex 34 80 0
      vertex 30 80 0
    endloop
  endfacet
  facet normal 0 0 -1
    outer loop
      vertex 34.1311 81.2475 0
      vertex 30.2185 82.0791 0
      vertex 30.8645 84.0674 0
    endloop
  endfacet
  facet normal -0 0 -1
    outer loop
      vertex 34 80 0
      vertex 0 -16 0
      vertex 30 80 0
    endloop
  endfacet
  facet normal -0 0 -1
    outer loop
      vertex 30 80 0
      vertex 0 -16 0
      vertex 0 80 0
    endloop
  endfacet
  facet normal -0 0 -1
    outer loop
      vertex 49.1355 84.0674 0
      vertex 45.4813 82.4404 0
      vertex 48.0902 85.8779 0
    endloop
  endfacet
  facet normal 0 0 -1
    outer loop
      vertex 44.8541 83.5267 0
      vertex 48.0902 85.8779 0
      vertex 45.4813 82.4404 0
    endloop
  endfacet
  facet normal -0 0 -1
    outer loop
      vertex 48.0902 85.8779 0
      vertex 44.8541 83.5267 0
      vertex 46.6913 87.4314 0
    endloop
  endfacet
  facet normal 0 0 -1
    outer loop
      vertex 44.0148 84.4589 0
      vertex 46.6913 87.4314 0
      vertex 44.8541 83.5267 0
    endloop
  endfacet
  facet normal -0 0 -1
    outer loop
      vertex 46.6913 87.4314 0
      vertex 44.0148 84.4589 0
      vertex 45 88.6603 0
    endloop
  endfacet
  facet normal 0 0 -1
    outer loop
      vertex 43 85.1962 0
      vertex 45 88.6603 0
      vertex 44.0148 84.4589 0
    endloop
  endfacet
  facet normal -0 0 -1
    outer loop
      vertex 45 88.6603 0
      vertex 43 85.1962 0
      vertex 43.0902 89.5106 0
    endloop
  endfacet
  facet normal 0 0 -1
    outer loop
      vertex 41.8541 85.7063 0
      vertex 43.0902 89.5106 0
      vertex 43 85.1962 0
    endloop
  endfacet
  facet normal 0 0 -1
    outer loop
      vertex 41.8541 85.7063 0
      vertex 41.0453 89.9452 0
      vertex 43.0902 89.5106 0
    endloop
  endfacet
  facet normal 0 0 -1
    outer loop
      vertex 40.6272 85.9671 0
      vertex 41.0453 89.9452 0
      vertex 41.8541 85.7063 0
    endloop
  endfacet
  facet normal 0 0 -1
    outer loop
      vertex 39.3728 85.9671 0
      vertex 41.0453 89.9452 0
      vertex 40.6272 85.9671 0
    endloop
  endfacet
  facet normal 0 0 -1
    outer loop
      vertex 39.3728 85.9671 0
      vertex 38.9547 89.9452 0
      vertex 41.0453 89.9452 0
    endloop
  endfacet
  facet normal 0 0 -1
    outer loop
      vertex 38.1459 85.7063 0
      vertex 38.9547 89.9452 0
      vertex 39.3728 85.9671 0
    endloop
  endfacet
  facet normal 0 0 -1
    outer loop
      vertex 36.9098 89.5106 0
      vertex 38.1459 85.7063 0
      vertex 37 85.1962 0
    endloop
  endfacet
  facet normal 0 0 -1
    outer loop
      vertex 38.1459 85.7063 0
      vertex 36.9098 89.5106 0
      vertex 38.9547 89.9452 0
    endloop
  endfacet
  facet normal 0 0 -1
    outer loop
      vertex 35 88.6603 0
      vertex 37 85.1962 0
      vertex 35.9852 84.4589 0
    endloop
  endfacet
  facet normal 0 0 -1
    outer loop
      vertex 33.3087 87.4314 0
      vertex 35.9852 84.4589 0
      vertex 35.1459 83.5267 0
    endloop
  endfacet
  facet normal 0 0 -1
    outer loop
      vertex 37 85.1962 0
      vertex 35 88.6603 0
      vertex 36.9098 89.5106 0
    endloop
  endfacet
  facet normal 0 0 -1
    outer loop
      vertex 31.9098 85.8779 0
      vertex 35.1459 83.5267 0
      vertex 34.5187 82.4404 0
    endloop
  endfacet
  facet normal 0 0 -1
    outer loop
      vertex 31.9098 85.8779 0
      vertex 34.5187 82.4404 0
      vertex 34.1311 81.2475 0
    endloop
  endfacet
  facet normal 0 0 -1
    outer loop
      vertex 35.9852 84.4589 0
      vertex 33.3087 87.4314 0
      vertex 35 88.6603 0
    endloop
  endfacet
  facet normal 0 0 -1
    outer loop
      vertex 30.2185 82.0791 0
      vertex 34.1311 81.2475 0
      vertex 34 80 0
    endloop
  endfacet
  facet normal -1 0 0
    outer loop
      vertex 5 5 3
      vertex 5 75 6
      vertex 5 75 3
    endloop
  endfacet
  facet normal -1 -0 0
    outer loop
      vertex 5 75 6
      vertex 5 5 3
      vertex 5 5 6
    endloop
  endfacet
  facet normal 0 1 -0
    outer loop
      vertex 75 75 3
      vertex 5 75 6
      vertex 75 75 6
    endloop
  endfacet
  facet normal 0 1 0
    outer loop
      vertex 5 75 6
      vertex 75 75 3
      vertex 5 75 3
    endloop
  endfacet
  facet normal 0 -1 0
    outer loop
      vertex 5 5 3
      vertex 75 5 6
      vertex 5 5 6
    endloop
  endfacet
  facet normal 0 -1 -0
    outer loop
      vertex 75 5 6
      vertex 5 5 3
      vertex 75 5 3
    endloop
  endfacet
  facet normal -1 0 0
    outer loop
      vertex 72 8 3
      vertex 72 72 6
      vertex 72 72 3
    endloop
  endfacet
  facet normal -1 -0 0
    outer loop
      vertex 72 72 6
      vertex 72 8 3
      vertex 72 8 6
    endloop
  endfacet
  facet normal 1 -0 0
    outer loop
      vertex 8 8 6
      vertex 8 72 3
      vertex 8 72 6
    endloop
  endfacet
  facet normal 1 0 0
    outer loop
      vertex 8 72 3
      vertex 8 8 6
      vertex 8 8 3
    endloop
  endfacet
  facet normal 0 -1 0
    outer loop
      vertex 8 72 3
      vertex 72 72 6
      vertex 8 72 6
    endloop
  endfacet
  facet normal 0 -1 -0
    outer loop
      vertex 72 72 6
      vertex 8 72 3
      vertex 72 72 3
    endloop
  endfacet
  facet normal 0 1 -0
    outer loop
      vertex 72 8 3
      vertex 8 8 6
      vertex 72 8 6
    endloop
  endfacet
  facet normal 0 1 0
    outer loop
      vertex 8 8 6
      vertex 72 8 3
      vertex 8 8 3
    endloop
  endfacet
  facet normal 0.951062 0.309001 0
    outer loop
      vertex 49.7815 82.0791 3
      vertex 49.1355 84.0674 0
      vertex 49.1355 84.0674 3
    endloop
  endfacet
  facet normal 0.951062 0.309001 0
    outer loop
      vertex 49.1355 84.0674 0
      vertex 49.7815 82.0791 3
      vertex 49.7815 82.0791 0
    endloop
  endfacet
  facet normal 0.994523 0.104518 0
    outer loop
      vertex 50 80 3
      vertex 49.7815 82.0791 0
      vertex 49.7815 82.0791 3
    endloop
  endfacet
  facet normal 0.994523 0.104518 0
    outer loop
      vertex 49.7815 82.0791 0
      vertex 50 80 3
      vertex 50 80 0
    endloop
  endfacet
  facet normal 0.866024 0.500003 0
    outer loop
      vertex 49.1355 84.0674 3
      vertex 48.0902 85.8779 0
      vertex 48.0902 85.8779 3
    endloop
  endfacet
  facet normal 0.866024 0.500003 0
    outer loop
      vertex 48.0902 85.8779 0
      vertex 49.1355 84.0674 3
      vertex 49.1355 84.0674 0
    endloop
  endfacet
  facet normal 0.406738 0.913545 -0
    outer loop
      vertex 45 88.6603 0
      vertex 43.0902 89.5106 3
      vertex 45 88.6603 3
    endloop
  endfacet
  facet normal 0.406738 0.913545 0
    outer loop
      vertex 43.0902 89.5106 3
      vertex 45 88.6603 0
      vertex 43.0902 89.5106 0
    endloop
  endfacet
  facet normal 0.743116 0.669163 0
    outer loop
      vertex 48.0902 85.8779 3
      vertex 46.6913 87.4314 0
      vertex 46.6913 87.4314 3
    endloop
  endfacet
  facet normal 0.743116 0.669163 0
    outer loop
      vertex 46.6913 87.4314 0
      vertex 48.0902 85.8779 3
      vertex 48.0902 85.8779 0
    endloop
  endfacet
  facet normal -0.743116 0.669163 0
    outer loop
      vertex 31.9098 85.8779 0
      vertex 33.3087 87.4314 3
      vertex 33.3087 87.4314 0
    endloop
  endfacet
  facet normal -0.743116 0.669163 0
    outer loop
      vertex 33.3087 87.4314 3
      vertex 31.9098 85.8779 0
      vertex 31.9098 85.8779 3
    endloop
  endfacet
  facet normal 0 1 -0
    outer loop
      vertex 41.0453 89.9452 0
      vertex 38.9547 89.9452 3
      vertex 41.0453 89.9452 3
    endloop
  endfacet
  facet normal 0 1 0
    outer loop
      vertex 38.9547 89.9452 3
      vertex 41.0453 89.9452 0
      vertex 38.9547 89.9452 0
    endloop
  endfacet
  facet normal -0.951062 0.309001 0
    outer loop
      vertex 30.2185 82.0791 0
      vertex 30.8645 84.0674 3
      vertex 30.8645 84.0674 0
    endloop
  endfacet
  facet normal -0.951062 0.309001 0
    outer loop
      vertex 30.8645 84.0674 3
      vertex 30.2185 82.0791 0
      vertex 30.2185 82.0791 3
    endloop
  endfacet
  facet normal -0.406738 0.913545 0
    outer loop
      vertex 36.9098 89.5106 0
      vertex 35 88.6603 3
      vertex 36.9098 89.5106 3
    endloop
  endfacet
  facet normal -0.406738 0.913545 0
    outer loop
      vertex 35 88.6603 3
      vertex 36.9098 89.5106 0
      vertex 35 88.6603 0
    endloop
  endfacet
  facet normal -0 0 1
    outer loop
      vertex 19.3385 -0.762512 3
      vertex 24.1975 -4.0715 3
      vertex 25.0225 -0.762512 3
    endloop
  endfacet
  facet normal 0 0 1
    outer loop
      vertex 24.1975 -4.0715 3
      vertex 19.3385 -0.762512 3
      vertex 19.3385 -4.0715 3
    endloop
  endfacet
  facet normal 0 0 1
    outer loop
      vertex 33.1365 -0.716507 3
      vertex 29.7295 -0.716507 3
      vertex 33.1365 -10.3125 3
    endloop
  endfacet
  facet normal 0 0 1
    outer loop
      vertex 24.1975 -4.0715 3
      vertex 29.7295 -0.716507 3
      vertex 25.0225 -0.762512 3
    endloop
  endfacet
  facet normal 0 0 1
    outer loop
      vertex 29.7295 -0.716507 3
      vertex 24.1975 -4.0715 3
      vertex 24.1975 -5.38449 3
    endloop
  endfacet
  facet normal 0 0 1
    outer loop
      vertex 29.7295 -0.716507 3
      vertex 24.1975 -5.38449 3
      vertex 25.0685 -8.98349 3
    endloop
  endfacet
  facet normal 0 0 1
    outer loop
      vertex 19.3385 -8.98349 3
      vertex 24.1975 -5.38449 3
      vertex 19.3385 -5.38449 3
    endloop
  endfacet
  facet normal 0 0 1
    outer loop
      vertex 24.1975 -5.38449 3
      vertex 19.3385 -8.98349 3
      vertex 25.0685 -8.98349 3
    endloop
  endfacet
  facet normal 0 0 1
    outer loop
      vertex 17.8415 0.56749 3
      vertex 12.1178 -2.95059 3
      vertex 12.4164 -6.3403 3
    endloop
  endfacet
  facet normal 0 0 1
    outer loop
      vertex 12.1178 -2.95059 3
      vertex 12.0176 -5.55724 3
      vertex 12.4164 -6.3403 3
    endloop
  endfacet
  facet normal -0 0 1
    outer loop
      vertex 11.7829 -3.63463 3
      vertex 12.0176 -5.55724 3
      vertex 12.1178 -2.95059 3
    endloop
  endfacet
  facet normal 0 0 1
    outer loop
      vertex 11.7829 -3.63463 3
      vertex 11.3581 -4.95982 3
      vertex 12.0176 -5.55724 3
    endloop
  endfacet
  facet normal -0 0 1
    outer loop
      vertex 11.2244 -4.19362 3
      vertex 11.3581 -4.95982 3
      vertex 11.7829 -3.63463 3
    endloop
  endfacet
  facet normal 0 0 1
    outer loop
      vertex 10.4424 -4.60951 3
      vertex 11.2244 -4.19362 3
      vertex 10.4424 -4.59351 3
    endloop
  endfacet
  facet normal 0 0 1
    outer loop
      vertex 11.2244 -4.19362 3
      vertex 10.4424 -4.60951 3
      vertex 11.3581 -4.95982 3
    endloop
  endfacet
  facet normal 0 0 1
    outer loop
      vertex 45.6541 -0.716507 3
      vertex 42.2471 -0.716507 3
      vertex 45.6541 -10.3125 3
    endloop
  endfacet
  facet normal 0 0 1
    outer loop
      vertex 49.7815 82.0791 3
      vertex 45.8689 81.2475 3
      vertex 46 80 3
    endloop
  endfacet
  facet normal 0 0 1
    outer loop
      vertex 48.0902 85.8779 3
      vertex 45.4813 82.4404 3
      vertex 45.8689 81.2475 3
    endloop
  endfacet
  facet normal 0 0 1
    outer loop
      vertex 44.0148 84.4589 3
      vertex 46.6913 87.4314 3
      vertex 45 88.6603 3
    endloop
  endfacet
  facet normal 0 0 1
    outer loop
      vertex 48.0902 85.8779 3
      vertex 44.8541 83.5267 3
      vertex 45.4813 82.4404 3
    endloop
  endfacet
  facet normal 0 0 1
    outer loop
      vertex 46.6913 87.4314 3
      vertex 44.0148 84.4589 3
      vertex 44.8541 83.5267 3
    endloop
  endfacet
  facet normal 0 0 1
    outer loop
      vertex 43 85.1962 3
      vertex 45 88.6603 3
      vertex 43.0902 89.5106 3
    endloop
  endfacet
  facet normal 0 0 1
    outer loop
      vertex 45 88.6603 3
      vertex 43 85.1962 3
      vertex 44.0148 84.4589 3
    endloop
  endfacet
  facet normal 0 0 1
    outer loop
      vertex 43.0902 89.5106 3
      vertex 41.8541 85.7063 3
      vertex 43 85.1962 3
    endloop
  endfacet
  facet normal 0 0 1
    outer loop
      vertex 41.0453 89.9452 3
      vertex 41.8541 85.7063 3
      vertex 43.0902 89.5106 3
    endloop
  endfacet
  facet normal 0 0 1
    outer loop
      vertex 41.0453 89.9452 3
      vertex 40.6272 85.9671 3
      vertex 41.8541 85.7063 3
    endloop
  endfacet
  facet normal 0 0 1
    outer loop
      vertex 41.0453 89.9452 3
      vertex 39.3728 85.9671 3
      vertex 40.6272 85.9671 3
    endloop
  endfacet
  facet normal -0 0 1
    outer loop
      vertex 38.9547 89.9452 3
      vertex 39.3728 85.9671 3
      vertex 41.0453 89.9452 3
    endloop
  endfacet
  facet normal 0 0 1
    outer loop
      vertex 38.9547 89.9452 3
      vertex 38.1459 85.7063 3
      vertex 39.3728 85.9671 3
    endloop
  endfacet
  facet normal -0 0 1
    outer loop
      vertex 36.9098 89.5106 3
      vertex 38.1459 85.7063 3
      vertex 38.9547 89.9452 3
    endloop
  endfacet
  facet normal 0 0 1
    outer loop
      vertex 38.1459 85.7063 3
      vertex 36.9098 89.5106 3
      vertex 37 85.1962 3
    endloop
  endfacet
  facet normal -0 0 1
    outer loop
      vertex 35 88.6603 3
      vertex 37 85.1962 3
      vertex 36.9098 89.5106 3
    endloop
  endfacet
  facet normal 0 0 1
    outer loop
      vertex 37 85.1962 3
      vertex 35 88.6603 3
      vertex 35.9852 84.4589 3
    endloop
  endfacet
  facet normal -0 0 1
    outer loop
      vertex 33.3087 87.4314 3
      vertex 35.9852 84.4589 3
      vertex 35 88.6603 3
    endloop
  endfacet
  facet normal 0 0 1
    outer loop
      vertex 35.9852 84.4589 3
      vertex 33.3087 87.4314 3
      vertex 35.1459 83.5267 3
    endloop
  endfacet
  facet normal -0 0 1
    outer loop
      vertex 31.9098 85.8779 3
      vertex 35.1459 83.5267 3
      vertex 33.3087 87.4314 3
    endloop
  endfacet
  facet normal -0 0 1
    outer loop
      vertex 30.8645 84.0674 3
      vertex 34.5187 82.4404 3
      vertex 31.9098 85.8779 3
    endloop
  endfacet
  facet normal 0 0 1
    outer loop
      vertex 35.1459 83.5267 3
      vertex 31.9098 85.8779 3
      vertex 34.5187 82.4404 3
    endloop
  endfacet
  facet normal -0 0 1
    outer loop
      vertex 57.0407 -0.762512 3
      vertex 61.8997 -4.0715 3
      vertex 62.7247 -0.762512 3
    endloop
  endfacet
  facet normal 0 0 1
    outer loop
      vertex 61.8997 -4.0715 3
      vertex 57.0407 -0.762512 3
      vertex 57.0407 -4.0715 3
    endloop
  endfacet
  facet normal -0 0 1
    outer loop
      vertex 75 5 3
      vertex 80 -16 3
      vertex 80 80 3
    endloop
  endfacet
  facet normal -0 0 1
    outer loop
      vertex 75.6689 -3.76244 3
      vertex 80 -16 3
      vertex 75.8197 -2.7285 3
    endloop
  endfacet
  facet normal 0 0 1
    outer loop
      vertex 80 -16 3
      vertex 75 5 3
      vertex 75.8197 -2.7285 3
    endloop
  endfacet
  facet normal 0 0 1
    outer loop
      vertex 75 5 3
      vertex 80 80 3
      vertex 75 75 3
    endloop
  endfacet
  facet normal -0 0 1
    outer loop
      vertex 50 80 3
      vertex 75 75 3
      vertex 80 80 3
    endloop
  endfacet
  facet normal 0 0 1
    outer loop
      vertex 45.8689 81.2475 3
      vertex 49.7815 82.0791 3
      vertex 49.1355 84.0674 3
    endloop
  endfacet
  facet normal 0 0 1
    outer loop
      vertex 45.8689 81.2475 3
      vertex 49.1355 84.0674 3
      vertex 48.0902 85.8779 3
    endloop
  endfacet
  facet normal 0 0 1
    outer loop
      vertex 44.8541 83.5267 3
      vertex 48.0902 85.8779 3
      vertex 46.6913 87.4314 3
    endloop
  endfacet
  facet normal 0 0 1
    outer loop
      vertex 49.7815 82.0791 3
      vertex 46 80 3
      vertex 50 80 3
    endloop
  endfacet
  facet normal -0 0 1
    outer loop
      vertex 46 80 3
      vertex 75 75 3
      vertex 50 80 3
    endloop
  endfacet
  facet normal -0 0 1
    outer loop
      vertex 34 80 3
      vertex 75 75 3
      vertex 46 80 3
    endloop
  endfacet
  facet normal 0 0 1
    outer loop
      vertex 34.5187 82.4404 3
      vertex 30.8645 84.0674 3
      vertex 34.1311 81.2475 3
    endloop
  endfacet
  facet normal -0 0 1
    outer loop
      vertex 30.2185 82.0791 3
      vertex 34.1311 81.2475 3
      vertex 30.8645 84.0674 3
    endloop
  endfacet
  facet normal 0 0 1
    outer loop
      vertex 34.1311 81.2475 3
      vertex 30.2185 82.0791 3
      vertex 34 80 3
    endloop
  endfacet
  facet normal 0 0 1
    outer loop
      vertex 30 80 3
      vertex 34 80 3
      vertex 30.2185 82.0791 3
    endloop
  endfacet
  facet normal 0 0 1
    outer loop
      vertex 5 75 3
      vertex 34 80 3
      vertex 30 80 3
    endloop
  endfacet
  facet normal 0 0 1
    outer loop
      vertex 34 80 3
      vertex 5 75 3
      vertex 75 75 3
    endloop
  endfacet
  facet normal 0 0 1
    outer loop
      vertex 0 80 3
      vertex 5 5 3
      vertex 5 75 3
    endloop
  endfacet
  facet normal 0 0 1
    outer loop
      vertex 5 5 3
      vertex 0 -16 3
      vertex 4.68236 0.56749 3
    endloop
  endfacet
  facet normal 0 0 1
    outer loop
      vertex 0 -16 3
      vertex 5 5 3
      vertex 0 80 3
    endloop
  endfacet
  facet normal -0 0 1
    outer loop
      vertex 0 80 3
      vertex 5 75 3
      vertex 30 80 3
    endloop
  endfacet
  facet normal -0 0 1
    outer loop
      vertex 74.6887 -10.3125 3
      vertex 80 -16 3
      vertex 76.3387 -10.3125 3
    endloop
  endfacet
  facet normal 0 0 1
    outer loop
      vertex 69.7077 -10.3125 3
      vertex 71.7857 -6.02449 3
      vertex 69.7077 -6.02449 3
    endloop
  endfacet
  facet normal 0 0 1
    outer loop
      vertex 71.7857 -6.02449 3
      vertex 69.7077 -10.3125 3
      vertex 74.6887 -10.3125 3
    endloop
  endfacet
  facet normal 0 0 1
    outer loop
      vertex 74.6887 -10.3125 3
      vertex 69.7077 -10.3125 3
      vertex 80 -16 3
    endloop
  endfacet
  facet normal -0 0 1
    outer loop
      vertex 68.2107 -10.3125 3
      vertex 80 -16 3
      vertex 69.7077 -10.3125 3
    endloop
  endfacet
  facet normal 0 0 1
    outer loop
      vertex 62.7707 -10.3125 3
      vertex 68.2107 -10.3125 3
      vertex 62.7707 -8.98349 3
    endloop
  endfacet
  facet normal 0 0 1
    outer loop
      vertex 68.2107 -10.3125 3
      vertex 62.7707 -10.3125 3
      vertex 80 -16 3
    endloop
  endfacet
  facet normal -0 0 1
    outer loop
      vertex 55.5437 -10.3125 3
      vertex 80 -16 3
      vertex 62.7707 -10.3125 3
    endloop
  endfacet
  facet normal 0 0 1
    outer loop
      vertex 55.5437 0.56749 3
      vertex 50.5431 -0.716507 3
      vertex 55.5437 -10.3125 3
    endloop
  endfacet
  facet normal 0 0 1
    outer loop
      vertex 47.1511 -10.3125 3
      vertex 50.5431 -0.716507 3
      vertex 47.1511 -0.716507 3
    endloop
  endfacet
  facet normal 0 0 1
    outer loop
      vertex 50.5431 -0.716507 3
      vertex 47.1511 -10.3125 3
      vertex 55.5437 -10.3125 3
    endloop
  endfacet
  facet normal -0 0 1
    outer loop
      vertex 47.1511 -10.3125 3
      vertex 80 -16 3
      vertex 55.5437 -10.3125 3
    endloop
  endfacet
  facet normal -0 0 1
    outer loop
      vertex 45.6541 -10.3125 3
      vertex 80 -16 3
      vertex 47.1511 -10.3125 3
    endloop
  endfacet
  facet normal 0 0 1
    outer loop
      vertex 38.0255 -0.716507 3
      vertex 42.2471 -0.716507 3
      vertex 38.0255 0.56749 3
    endloop
  endfacet
  facet normal 0 0 1
    outer loop
      vertex 42.2471 -0.716507 3
      vertex 38.0255 -0.716507 3
      vertex 45.6541 -10.3125 3
    endloop
  endfacet
  facet normal 0 0 1
    outer loop
      vertex 34.6335 -10.3125 3
      vertex 38.0255 -0.716507 3
      vertex 34.6335 -0.716507 3
    endloop
  endfacet
  facet normal 0 0 1
    outer loop
      vertex 38.0255 -0.716507 3
      vertex 34.6335 -10.3125 3
      vertex 45.6541 -10.3125 3
    endloop
  endfacet
  facet normal -0 0 1
    outer loop
      vertex 34.6335 -10.3125 3
      vertex 80 -16 3
      vertex 45.6541 -10.3125 3
    endloop
  endfacet
  facet normal 0 0 1
    outer loop
      vertex 0 -16 3
      vertex 34.6335 -10.3125 3
      vertex 33.1365 -10.3125 3
    endloop
  endfacet
  facet normal -0 0 1
    outer loop
      vertex 25.0685 -8.98349 3
      vertex 33.1365 -10.3125 3
      vertex 29.7295 -0.716507 3
    endloop
  endfacet
  facet normal 0 0 1
    outer loop
      vertex 25.0685 -10.3125 3
      vertex 33.1365 -10.3125 3
      vertex 25.0685 -8.98349 3
    endloop
  endfacet
  facet normal 0 0 1
    outer loop
      vertex 0 -16 3
      vertex 33.1365 -10.3125 3
      vertex 25.0685 -10.3125 3
    endloop
  endfacet
  facet normal 0 0 1
    outer loop
      vertex 0 -16 3
      vertex 25.0685 -10.3125 3
      vertex 17.8415 -10.3125 3
    endloop
  endfacet
  facet normal -0 0 1
    outer loop
      vertex 12.2702 -8.58786 3
      vertex 17.8415 -10.3125 3
      vertex 12.5504 -7.2475 3
    endloop
  endfacet
  facet normal -0 0 1
    outer loop
      vertex 11.5231 -9.54575 3
      vertex 17.8415 -10.3125 3
      vertex 12.2702 -8.58786 3
    endloop
  endfacet
  facet normal -0 0 1
    outer loop
      vertex 10.4494 -10.1207 3
      vertex 17.8415 -10.3125 3
      vertex 11.5231 -9.54575 3
    endloop
  endfacet
  facet normal 0 0 1
    outer loop
      vertex 0 -16 3
      vertex 17.8415 -10.3125 3
      vertex 10.4494 -10.1207 3
    endloop
  endfacet
  facet normal 0 0 1
    outer loop
      vertex 0 -16 3
      vertex 10.4494 -10.1207 3
      vertex 9.18936 -10.3125 3
    endloop
  endfacet
  facet normal 0 0 1
    outer loop
      vertex 0 -16 3
      vertex 9.18936 -10.3125 3
      vertex 4.68236 -10.3125 3
    endloop
  endfacet
  facet normal 0 0 1
    outer loop
      vertex 34.6335 -10.3125 3
      vertex 0 -16 3
      vertex 80 -16 3
    endloop
  endfacet
  facet normal 0 0 1
    outer loop
      vertex 4.68236 0.56749 3
      vertex 0 -16 3
      vertex 4.68236 -10.3125 3
    endloop
  endfacet
  facet normal 0 0 1
    outer loop
      vertex 80 -16 3
      vertex 75.6689 -3.76244 3
      vertex 76.3387 -10.3125 3
    endloop
  endfacet
  facet normal -0 0 1
    outer loop
      vertex 75.2102 -4.68338 3
      vertex 76.3387 -10.3125 3
      vertex 75.6689 -3.76244 3
    endloop
  endfacet
  facet normal -0 0 1
    outer loop
      vertex 74.4334 -5.41289 3
      vertex 76.3387 -10.3125 3
      vertex 75.2102 -4.68338 3
    endloop
  endfacet
  facet normal 0 0 1
    outer loop
      vertex 76.3387 -10.3125 3
      vertex 74.4334 -5.41289 3
      vertex 73.3287 -5.8725 3
    endloop
  endfacet
  facet normal 0 0 1
    outer loop
      vertex 75.8197 -2.7285 3
      vertex 75 5 3
      vertex 75.5484 -1.31955 3
    endloop
  endfacet
  facet normal 0 0 1
    outer loop
      vertex 75 5 3
      vertex 74.7959 -0.285889 3
      vertex 75.5484 -1.31955 3
    endloop
  endfacet
  facet normal 0 0 1
    outer loop
      vertex 75 5 3
      vertex 73.6537 0.350479 3
      vertex 74.7959 -0.285889 3
    endloop
  endfacet
  facet normal 0 0 1
    outer loop
      vertex 75 5 3
      vertex 72.2137 0.56749 3
      vertex 73.6537 0.350479 3
    endloop
  endfacet
  facet normal 0 0 1
    outer loop
      vertex 75 5 3
      vertex 68.2107 0.56749 3
      vertex 72.2137 0.56749 3
    endloop
  endfacet
  facet normal -0 0 1
    outer loop
      vertex 61.8997 -5.38449 3
      vertex 68.2107 -10.3125 3
      vertex 68.2107 0.56749 3
    endloop
  endfacet
  facet normal 0 0 1
    outer loop
      vertex 62.7247 -0.762512 3
      vertex 68.2107 0.56749 3
      vertex 62.7247 0.56749 3
    endloop
  endfacet
  facet normal 0 0 1
    outer loop
      vertex 75 5 3
      vertex 62.7247 0.56749 3
      vertex 68.2107 0.56749 3
    endloop
  endfacet
  facet normal 0 0 1
    outer loop
      vertex 75 5 3
      vertex 55.5437 0.56749 3
      vertex 62.7247 0.56749 3
    endloop
  endfacet
  facet normal 0 0 1
    outer loop
      vertex 50.5431 -0.716507 3
      vertex 55.5437 0.56749 3
      vertex 50.5431 0.56749 3
    endloop
  endfacet
  facet normal 0 0 1
    outer loop
      vertex 75 5 3
      vertex 50.5431 0.56749 3
      vertex 55.5437 0.56749 3
    endloop
  endfacet
  facet normal 0 0 1
    outer loop
      vertex 75 5 3
      vertex 42.2471 0.56749 3
      vertex 50.5431 0.56749 3
    endloop
  endfacet
  facet normal 0 0 1
    outer loop
      vertex 42.2471 0.56749 3
      vertex 38.0255 0.56749 3
      vertex 42.2471 -0.716507 3
    endloop
  endfacet
  facet normal 0 0 1
    outer loop
      vertex 75 5 3
      vertex 38.0255 0.56749 3
      vertex 42.2471 0.56749 3
    endloop
  endfacet
  facet normal -0 0 1
    outer loop
      vertex 5 5 3
      vertex 38.0255 0.56749 3
      vertex 75 5 3
    endloop
  endfacet
  facet normal -0 0 1
    outer loop
      vertex 25.0225 0.56749 3
      vertex 29.7295 -0.716507 3
      vertex 29.7295 0.56749 3
    endloop
  endfacet
  facet normal 0 0 1
    outer loop
      vertex 25.0225 -0.762512 3
      vertex 29.7295 -0.716507 3
      vertex 25.0225 0.56749 3
    endloop
  endfacet
  facet normal 0 0 1
    outer loop
      vertex 38.0255 0.56749 3
      vertex 5 5 3
      vertex 29.7295 0.56749 3
    endloop
  endfacet
  facet normal 0 0 1
    outer loop
      vertex 29.7295 0.56749 3
      vertex 5 5 3
      vertex 25.0225 0.56749 3
    endloop
  endfacet
  facet normal -0 0 1
    outer loop
      vertex 12.4164 -6.3403 3
      vertex 17.8415 -10.3125 3
      vertex 17.8415 0.56749 3
    endloop
  endfacet
  facet normal 0 0 1
    outer loop
      vertex 17.8415 -10.3125 3
      vertex 12.4164 -6.3403 3
      vertex 12.5504 -7.2475 3
    endloop
  endfacet
  facet normal 0 0 1
    outer loop
      vertex 12.1178 -2.95059 3
      vertex 17.8415 0.56749 3
      vertex 12.2294 -2.17551 3
    endloop
  endfacet
  facet normal 0 0 1
    outer loop
      vertex 17.8415 0.56749 3
      vertex 12.0053 -0.982895 3
      vertex 12.2294 -2.17551 3
    endloop
  endfacet
  facet normal 0 0 1
    outer loop
      vertex 17.8415 0.56749 3
      vertex 11.3645 -0.124878 3
      vertex 12.0053 -0.982895 3
    endloop
  endfacet
  facet normal 0 0 1
    outer loop
      vertex 17.8415 0.56749 3
      vertex 10.3541 0.39357 3
      vertex 11.3645 -0.124878 3
    endloop
  endfacet
  facet normal 0 0 1
    outer loop
      vertex 25.0225 0.56749 3
      vertex 5 5 3
      vertex 17.8415 0.56749 3
    endloop
  endfacet
  facet normal 0 0 1
    outer loop
      vertex 17.8415 0.56749 3
      vertex 5 5 3
      vertex 10.3541 0.39357 3
    endloop
  endfacet
  facet normal 0 0 1
    outer loop
      vertex 10.3541 0.39357 3
      vertex 5 5 3
      vertex 9.02136 0.56749 3
    endloop
  endfacet
  facet normal 0 0 1
    outer loop
      vertex 9.02136 0.56749 3
      vertex 5 5 3
      vertex 4.68236 0.56749 3
    endloop
  endfacet
  facet normal 0 0 1
    outer loop
      vertex 61.8997 -4.0715 3
      vertex 68.2107 0.56749 3
      vertex 62.7247 -0.762512 3
    endloop
  endfacet
  facet normal 0 0 1
    outer loop
      vertex 68.2107 0.56749 3
      vertex 61.8997 -4.0715 3
      vertex 61.8997 -5.38449 3
    endloop
  endfacet
  facet normal 0 0 1
    outer loop
      vertex 68.2107 -10.3125 3
      vertex 61.8997 -5.38449 3
      vertex 62.7707 -8.98349 3
    endloop
  endfacet
  facet normal 0 0 1
    outer loop
      vertex 57.0407 -8.98349 3
      vertex 61.8997 -5.38449 3
      vertex 57.0407 -5.38449 3
    endloop
  endfacet
  facet normal 0 0 1
    outer loop
      vertex 61.8997 -5.38449 3
      vertex 57.0407 -8.98349 3
      vertex 62.7707 -8.98349 3
    endloop
  endfacet
  facet normal -0 0 1
    outer loop
      vertex 8 72 3
      vertex 72 8 3
      vertex 72 72 3
    endloop
  endfacet
  facet normal 0 0 1
    outer loop
      vertex 72 8 3
      vertex 8 72 3
      vertex 8 8 3
    endloop
  endfacet
  facet normal 0 0 1
    outer loop
      vertex 9.55132 -0.81073 3
      vertex 10.7634 -2.37251 3
      vertex 10.6115 -1.62016 3
    endloop
  endfacet
  facet normal 0 0 1
    outer loop
      vertex 9.55132 -0.81073 3
      vertex 10.6115 -1.62016 3
      vertex 10.1902 -1.10576 3
    endloop
  endfacet
  facet normal 0 0 1
    outer loop
      vertex 9.52557 -3.99631 3
      vertex 10.7634 -2.37251 3
      vertex 9.55132 -0.81073 3
    endloop
  endfacet
  facet normal 0 0 1
    outer loop
      vertex 10.7634 -2.37251 3
      vertex 10.1751 -3.67163 3
      vertex 10.6068 -3.1304 3
    endloop
  endfacet
  facet normal 0 0 1
    outer loop
      vertex 10.7634 -2.37251 3
      vertex 9.52557 -3.99631 3
      vertex 10.1751 -3.67163 3
    endloop
  endfacet
  facet normal 0 0 1
    outer loop
      vertex 8.74635 -0.716507 3
      vertex 9.52557 -3.99631 3
      vertex 9.55132 -0.81073 3
    endloop
  endfacet
  facet normal 0 0 1
    outer loop
      vertex 8.74635 -0.716507 3
      vertex 8.71536 -4.10451 3
      vertex 9.52557 -3.99631 3
    endloop
  endfacet
  facet normal -0 0 1
    outer loop
      vertex 6.17935 -0.716507 3
      vertex 8.71536 -4.10451 3
      vertex 8.74635 -0.716507 3
    endloop
  endfacet
  facet normal 0 0 1
    outer loop
      vertex 8.71536 -4.10451 3
      vertex 6.17935 -0.716507 3
      vertex 6.17935 -4.10451 3
    endloop
  endfacet
  facet normal 0 0 1
    outer loop
      vertex 9.77086 -5.47864 3
      vertex 11.0534 -7.17049 3
      vertex 10.8951 -6.36279 3
    endloop
  endfacet
  facet normal 0 0 1
    outer loop
      vertex 9.77086 -5.47864 3
      vertex 10.8951 -6.36279 3
      vertex 10.4519 -5.80362 3
    endloop
  endfacet
  facet normal 0 0 1
    outer loop
      vertex 9.76453 -8.91481 3
      vertex 11.0534 -7.17049 3
      vertex 9.77086 -5.47864 3
    endloop
  endfacet
  facet normal 0 0 1
    outer loop
      vertex 11.0534 -7.17049 3
      vertex 9.76453 -8.91481 3
      vertex 10.893 -7.98831 3
    endloop
  endfacet
  facet normal 0 0 1
    outer loop
      vertex 10.893 -7.98831 3
      vertex 9.76453 -8.91481 3
      vertex 10.4462 -8.56874 3
    endloop
  endfacet
  facet normal 0 0 1
    outer loop
      vertex 8.89935 -5.37349 3
      vertex 9.76453 -8.91481 3
      vertex 9.77086 -5.47864 3
    endloop
  endfacet
  facet normal 0 0 1
    outer loop
      vertex 8.89935 -5.37349 3
      vertex 8.89935 -9.0295 3
      vertex 9.76453 -8.91481 3
    endloop
  endfacet
  facet normal -0 0 1
    outer loop
      vertex 6.17935 -5.37349 3
      vertex 8.89935 -9.0295 3
      vertex 8.89935 -5.37349 3
    endloop
  endfacet
  facet normal 0 0 1
    outer loop
      vertex 8.89935 -9.0295 3
      vertex 6.17935 -5.37349 3
      vertex 6.17935 -9.0295 3
    endloop
  endfacet
  facet normal 0 0 1
    outer loop
      vertex 72.9153 -0.800873 3
      vertex 74.3527 -2.7135 3
      vertex 74.1772 -1.79208 3
    endloop
  endfacet
  facet normal 0 -0 1
    outer loop
      vertex 72.9601 -4.64598 3
      vertex 74.3527 -2.7135 3
      vertex 72.9153 -0.800873 3
    endloop
  endfacet
  facet normal 0 0 1
    outer loop
      vertex 72.9153 -0.800873 3
      vertex 74.1772 -1.79208 3
      vertex 73.6823 -1.16214 3
    endloop
  endfacet
  facet normal 0 0 1
    outer loop
      vertex 74.1883 -3.62079 3
      vertex 72.9601 -4.64598 3
      vertex 73.7145 -4.2635 3
    endloop
  endfacet
  facet normal 0 0 1
    outer loop
      vertex 74.3527 -2.7135 3
      vertex 72.9601 -4.64598 3
      vertex 74.1883 -3.62079 3
    endloop
  endfacet
  facet normal 0 0 1
    outer loop
      vertex 72.9153 -0.800873 3
      vertex 71.9537 -4.77251 3
      vertex 72.9601 -4.64598 3
    endloop
  endfacet
  facet normal 0 0 1
    outer loop
      vertex 71.9237 -0.685501 3
      vertex 71.9537 -4.77251 3
      vertex 72.9153 -0.800873 3
    endloop
  endfacet
  facet normal -0 0 1
    outer loop
      vertex 69.7077 -0.685501 3
      vertex 71.9537 -4.77251 3
      vertex 71.9237 -0.685501 3
    endloop
  endfacet
  facet normal 0 0 1
    outer loop
      vertex 71.9537 -4.77251 3
      vertex 69.7077 -0.685501 3
      vertex 69.7077 -4.77251 3
    endloop
  endfacet
  facet normal 0.207886 0.978153 -0
    outer loop
      vertex 43.0902 89.5106 0
      vertex 41.0453 89.9452 3
      vertex 43.0902 89.5106 3
    endloop
  endfacet
  facet normal 0.207886 0.978153 0
    outer loop
      vertex 41.0453 89.9452 3
      vertex 43.0902 89.5106 0
      vertex 41.0453 89.9452 0
    endloop
  endfacet
  facet normal -0.994523 0.104518 0
    outer loop
      vertex 30 80 0
      vertex 30.2185 82.0791 3
      vertex 30.2185 82.0791 0
    endloop
  endfacet
  facet normal -0.994523 0.104518 0
    outer loop
      vertex 30.2185 82.0791 3
      vertex 30 80 0
      vertex 30 80 3
    endloop
  endfacet
  facet normal -0.866024 0.500003 0
    outer loop
      vertex 30.8645 84.0674 0
      vertex 31.9098 85.8779 3
      vertex 31.9098 85.8779 0
    endloop
  endfacet
  facet normal -0.866024 0.500003 0
    outer loop
      vertex 31.9098 85.8779 3
      vertex 30.8645 84.0674 0
      vertex 30.8645 84.0674 3
    endloop
  endfacet
  facet normal 0.587816 0.808995 -0
    outer loop
      vertex 46.6913 87.4314 0
      vertex 45 88.6603 3
      vertex 46.6913 87.4314 3
    endloop
  endfacet
  facet normal 0.587816 0.808995 0
    outer loop
      vertex 45 88.6603 3
      vertex 46.6913 87.4314 0
      vertex 45 88.6603 0
    endloop
  endfacet
  facet normal -0.587816 0.808995 0
    outer loop
      vertex 35 88.6603 0
      vertex 33.3087 87.4314 3
      vertex 35 88.6603 3
    endloop
  endfacet
  facet normal -0.587816 0.808995 0
    outer loop
      vertex 33.3087 87.4314 3
      vertex 35 88.6603 0
      vertex 33.3087 87.4314 0
    endloop
  endfacet
  facet normal -0.207886 0.978153 0
    outer loop
      vertex 38.9547 89.9452 0
      vertex 36.9098 89.5106 3
      vertex 38.9547 89.9452 3
    endloop
  endfacet
  facet normal -0.207886 0.978153 0
    outer loop
      vertex 36.9098 89.5106 3
      vertex 38.9547 89.9452 0
      vertex 36.9098 89.5106 0
    endloop
  endfacet
  facet normal -0.587788 -0.809015 0
    outer loop
      vertex 43 85.1962 0
      vertex 44.0148 84.4589 3
      vertex 43 85.1962 3
    endloop
  endfacet
  facet normal -0.587788 -0.809015 -0
    outer loop
      vertex 44.0148 84.4589 3
      vertex 43 85.1962 0
      vertex 44.0148 84.4589 0
    endloop
  endfacet
  facet normal 0.866017 -0.500015 0
    outer loop
      vertex 34.5187 82.4404 3
      vertex 35.1459 83.5267 0
      vertex 35.1459 83.5267 3
    endloop
  endfacet
  facet normal 0.866017 -0.500015 0
    outer loop
      vertex 35.1459 83.5267 0
      vertex 34.5187 82.4404 3
      vertex 34.5187 82.4404 0
    endloop
  endfacet
  facet normal -0.866017 -0.500015 0
    outer loop
      vertex 45.4813 82.4404 0
      vertex 44.8541 83.5267 3
      vertex 44.8541 83.5267 0
    endloop
  endfacet
  facet normal -0.866017 -0.500015 0
    outer loop
      vertex 44.8541 83.5267 3
      vertex 45.4813 82.4404 0
      vertex 45.4813 82.4404 3
    endloop
  endfacet
  facet normal 0.994523 -0.104515 0
    outer loop
      vertex 34 80 3
      vertex 34.1311 81.2475 0
      vertex 34.1311 81.2475 3
    endloop
  endfacet
  facet normal 0.994523 -0.104515 0
    outer loop
      vertex 34.1311 81.2475 0
      vertex 34 80 3
      vertex 34 80 0
    endloop
  endfacet
  facet normal -0.994523 -0.104515 0
    outer loop
      vertex 46 80 0
      vertex 45.8689 81.2475 3
      vertex 45.8689 81.2475 0
    endloop
  endfacet
  facet normal -0.994523 -0.104515 0
    outer loop
      vertex 45.8689 81.2475 3
      vertex 46 80 0
      vertex 46 80 3
    endloop
  endfacet
  facet normal 0.951056 -0.309019 0
    outer loop
      vertex 34.1311 81.2475 3
      vertex 34.5187 82.4404 0
      vertex 34.5187 82.4404 3
    endloop
  endfacet
  facet normal 0.951056 -0.309019 0
    outer loop
      vertex 34.5187 82.4404 0
      vertex 34.1311 81.2475 3
      vertex 34.1311 81.2475 0
    endloop
  endfacet
  facet normal 0.207923 -0.978145 0
    outer loop
      vertex 38.1459 85.7063 0
      vertex 39.3728 85.9671 3
      vertex 38.1459 85.7063 3
    endloop
  endfacet
  facet normal 0.207923 -0.978145 0
    outer loop
      vertex 39.3728 85.9671 3
      vertex 38.1459 85.7063 0
      vertex 39.3728 85.9671 0
    endloop
  endfacet
  facet normal -0.951056 -0.309019 0
    outer loop
      vertex 45.8689 81.2475 0
      vertex 45.4813 82.4404 3
      vertex 45.4813 82.4404 0
    endloop
  endfacet
  facet normal -0.951056 -0.309019 0
    outer loop
      vertex 45.4813 82.4404 3
      vertex 45.8689 81.2475 0
      vertex 45.8689 81.2475 3
    endloop
  endfacet
  facet normal -0.406678 -0.913571 0
    outer loop
      vertex 41.8541 85.7063 0
      vertex 43 85.1962 3
      vertex 41.8541 85.7063 3
    endloop
  endfacet
  facet normal -0.406678 -0.913571 -0
    outer loop
      vertex 43 85.1962 3
      vertex 41.8541 85.7063 0
      vertex 43 85.1962 0
    endloop
  endfacet
  facet normal 0.406678 -0.913571 0
    outer loop
      vertex 37 85.1962 0
      vertex 38.1459 85.7063 3
      vertex 37 85.1962 3
    endloop
  endfacet
  facet normal 0.406678 -0.913571 0
    outer loop
      vertex 38.1459 85.7063 3
      vertex 37 85.1962 0
      vertex 38.1459 85.7063 0
    endloop
  endfacet
  facet normal 0 -1 0
    outer loop
      vertex 39.3728 85.9671 0
      vertex 40.6272 85.9671 3
      vertex 39.3728 85.9671 3
    endloop
  endfacet
  facet normal 0 -1 -0
    outer loop
      vertex 40.6272 85.9671 3
      vertex 39.3728 85.9671 0
      vertex 40.6272 85.9671 0
    endloop
  endfacet
  facet normal -0.743167 -0.669106 0
    outer loop
      vertex 44.8541 83.5267 0
      vertex 44.0148 84.4589 3
      vertex 44.0148 84.4589 0
    endloop
  endfacet
  facet normal -0.743167 -0.669106 0
    outer loop
      vertex 44.0148 84.4589 3
      vertex 44.8541 83.5267 0
      vertex 44.8541 83.5267 3
    endloop
  endfacet
  facet normal -0.207923 -0.978145 0
    outer loop
      vertex 40.6272 85.9671 0
      vertex 41.8541 85.7063 3
      vertex 40.6272 85.9671 3
    endloop
  endfacet
  facet normal -0.207923 -0.978145 -0
    outer loop
      vertex 41.8541 85.7063 3
      vertex 40.6272 85.9671 0
      vertex 41.8541 85.7063 0
    endloop
  endfacet
  facet normal 0.743167 -0.669106 0
    outer loop
      vertex 35.1459 83.5267 3
      vertex 35.9852 84.4589 0
      vertex 35.9852 84.4589 3
    endloop
  endfacet
  facet normal 0.743167 -0.669106 0
    outer loop
      vertex 35.9852 84.4589 0
      vertex 35.1459 83.5267 3
      vertex 35.1459 83.5267 0
    endloop
  endfacet
  facet normal 0.587788 -0.809015 0
    outer loop
      vertex 35.9852 84.4589 0
      vertex 37 85.1962 3
      vertex 35.9852 84.4589 3
    endloop
  endfacet
  facet normal 0.587788 -0.809015 0
    outer loop
      vertex 37 85.1962 3
      vertex 35.9852 84.4589 0
      vertex 37 85.1962 0
    endloop
  endfacet
  facet normal 1 -0 0
    outer loop
      vertex 80 -16 3
      vertex 80 80 0
      vertex 80 80 3
    endloop
  endfacet
  facet normal 1 0 0
    outer loop
      vertex 80 80 0
      vertex 80 -16 3
      vertex 80 -16 0
    endloop
  endfacet
  facet normal -1 0 0
    outer loop
      vertex 0 -16 0
      vertex 0 80 3
      vertex 0 80 0
    endloop
  endfacet
  facet normal -1 -0 0
    outer loop
      vertex 0 80 3
      vertex 0 -16 0
      vertex 0 -16 3
    endloop
  endfacet
  facet normal 0 1 -0
    outer loop
      vertex 80 80 0
      vertex 50 80 3
      vertex 80 80 3
    endloop
  endfacet
  facet normal 0 1 0
    outer loop
      vertex 50 80 3
      vertex 80 80 0
      vertex 50 80 0
    endloop
  endfacet
  facet normal 0 1 -0
    outer loop
      vertex 30 80 0
      vertex 0 80 3
      vertex 30 80 3
    endloop
  endfacet
  facet normal 0 1 0
    outer loop
      vertex 0 80 3
      vertex 30 80 0
      vertex 0 80 0
    endloop
  endfacet
  facet normal 0 1 -0
    outer loop
      vertex 46 80 0
      vertex 34 80 3
      vertex 46 80 3
    endloop
  endfacet
  facet normal 0 1 0
    outer loop
      vertex 34 80 3
      vertex 46 80 0
      vertex 34 80 0
    endloop
  endfacet
  facet normal 0 -1 0
    outer loop
      vertex 0 -16 0
      vertex 80 -16 3
      vertex 0 -16 3
    endloop
  endfacet
  facet normal 0 -1 -0
    outer loop
      vertex 80 -16 3
      vertex 0 -16 0
      vertex 80 -16 0
    endloop
  endfacet
  facet normal -0 0 1
    outer loop
      vertex 10.6115 -1.62016 7
      vertex 12.2294 -2.17551 7
      vertex 12.0053 -0.982895 7
    endloop
  endfacet
  facet normal 0 0 1
    outer loop
      vertex 12.2294 -2.17551 7
      vertex 10.7634 -2.37251 7
      vertex 12.1178 -2.95059 7
    endloop
  endfacet
  facet normal 0 0 1
    outer loop
      vertex 10.6115 -1.62016 7
      vertex 12.0053 -0.982895 7
      vertex 11.3645 -0.124878 7
    endloop
  endfacet
  facet normal 0 0 1
    outer loop
      vertex 10.6068 -3.1304 7
      vertex 12.1178 -2.95059 7
      vertex 10.7634 -2.37251 7
    endloop
  endfacet
  facet normal 0 0 1
    outer loop
      vertex 12.1178 -2.95059 7
      vertex 10.6068 -3.1304 7
      vertex 11.7829 -3.63463 7
    endloop
  endfacet
  facet normal 0 0 1
    outer loop
      vertex 12.2294 -2.17551 7
      vertex 10.6115 -1.62016 7
      vertex 10.7634 -2.37251 7
    endloop
  endfacet
  facet normal 0 0 1
    outer loop
      vertex 10.1902 -1.10576 7
      vertex 11.3645 -0.124878 7
      vertex 10.3541 0.39357 7
    endloop
  endfacet
  facet normal 0 0 1
    outer loop
      vertex 11.3645 -0.124878 7
      vertex 10.1902 -1.10576 7
      vertex 10.6115 -1.62016 7
    endloop
  endfacet
  facet normal 0 0 1
    outer loop
      vertex 10.3541 0.39357 7
      vertex 9.55132 -0.81073 7
      vertex 10.1902 -1.10576 7
    endloop
  endfacet
  facet normal 0 0 1
    outer loop
      vertex 9.02136 0.56749 7
      vertex 9.55132 -0.81073 7
      vertex 10.3541 0.39357 7
    endloop
  endfacet
  facet normal 0 0 1
    outer loop
      vertex 9.02136 0.56749 7
      vertex 8.74635 -0.716507 7
      vertex 9.55132 -0.81073 7
    endloop
  endfacet
  facet normal 0 0 1
    outer loop
      vertex 9.02136 0.56749 7
      vertex 6.17935 -0.716507 7
      vertex 8.74635 -0.716507 7
    endloop
  endfacet
  facet normal 0 0 1
    outer loop
      vertex 4.68236 0.56749 7
      vertex 6.17935 -4.10451 7
      vertex 6.17935 -0.716507 7
    endloop
  endfacet
  facet normal 0 0 1
    outer loop
      vertex 6.17935 -4.10451 7
      vertex 4.68236 0.56749 7
      vertex 6.17935 -5.37349 7
    endloop
  endfacet
  facet normal 0 0 1
    outer loop
      vertex 4.68236 -10.3125 7
      vertex 6.17935 -5.37349 7
      vertex 4.68236 0.56749 7
    endloop
  endfacet
  facet normal -0 0 1
    outer loop
      vertex 4.68236 0.56749 7
      vertex 6.17935 -0.716507 7
      vertex 9.02136 0.56749 7
    endloop
  endfacet
  facet normal 0 0 1
    outer loop
      vertex 11.7829 -3.63463 7
      vertex 10.6068 -3.1304 7
      vertex 11.2244 -4.19362 7
    endloop
  endfacet
  facet normal -0 0 1
    outer loop
      vertex 10.1751 -3.67163 7
      vertex 11.2244 -4.19362 7
      vertex 10.6068 -3.1304 7
    endloop
  endfacet
  facet normal -0 0 1
    outer loop
      vertex 9.52557 -3.99631 7
      vertex 10.4424 -4.59351 7
      vertex 10.1751 -3.67163 7
    endloop
  endfacet
  facet normal 0 0 1
    outer loop
      vertex 11.2244 -4.19362 7
      vertex 10.1751 -3.67163 7
      vertex 10.4424 -4.59351 7
    endloop
  endfacet
  facet normal 0 0 1
    outer loop
      vertex 12.4164 -6.3403 7
      vertex 10.8951 -6.36279 7
      vertex 11.0534 -7.17049 7
    endloop
  endfacet
  facet normal 0 0 1
    outer loop
      vertex 11.3581 -4.95982 7
      vertex 10.4519 -5.80362 7
      vertex 10.8951 -6.36279 7
    endloop
  endfacet
  facet normal 0 0 1
    outer loop
      vertex 10.4424 -4.60951 7
      vertex 10.4519 -5.80362 7
      vertex 11.3581 -4.95982 7
    endloop
  endfacet
  facet normal 0 0 1
    outer loop
      vertex 10.4424 -4.59351 7
      vertex 9.52557 -3.99631 7
      vertex 10.4424 -4.60951 7
    endloop
  endfacet
  facet normal 0 0 1
    outer loop
      vertex 10.4424 -4.60951 7
      vertex 9.77086 -5.47864 7
      vertex 10.4519 -5.80362 7
    endloop
  endfacet
  facet normal 0 0 1
    outer loop
      vertex 10.4424 -4.60951 7
      vertex 9.52557 -3.99631 7
      vertex 9.77086 -5.47864 7
    endloop
  endfacet
  facet normal 0 0 1
    outer loop
      vertex 9.52557 -3.99631 7
      vertex 8.89935 -5.37349 7
      vertex 9.77086 -5.47864 7
    endloop
  endfacet
  facet normal -0 0 1
    outer loop
      vertex 8.71536 -4.10451 7
      vertex 8.89935 -5.37349 7
      vertex 9.52557 -3.99631 7
    endloop
  endfacet
  facet normal 0 0 1
    outer loop
      vertex 6.17935 -5.37349 7
      vertex 8.71536 -4.10451 7
      vertex 6.17935 -4.10451 7
    endloop
  endfacet
  facet normal 0 0 1
    outer loop
      vertex 8.71536 -4.10451 7
      vertex 6.17935 -5.37349 7
      vertex 8.89935 -5.37349 7
    endloop
  endfacet
  facet normal -0 0 1
    outer loop
      vertex 11.0534 -7.17049 7
      vertex 12.5504 -7.2475 7
      vertex 12.4164 -6.3403 7
    endloop
  endfacet
  facet normal 0 0 1
    outer loop
      vertex 10.8951 -6.36279 7
      vertex 12.4164 -6.3403 7
      vertex 12.0176 -5.55724 7
    endloop
  endfacet
  facet normal 0 0 1
    outer loop
      vertex 10.893 -7.98831 7
      vertex 12.5504 -7.2475 7
      vertex 11.0534 -7.17049 7
    endloop
  endfacet
  facet normal 0 0 1
    outer loop
      vertex 10.8951 -6.36279 7
      vertex 12.0176 -5.55724 7
      vertex 11.3581 -4.95982 7
    endloop
  endfacet
  facet normal 0 0 1
    outer loop
      vertex 12.5504 -7.2475 7
      vertex 10.893 -7.98831 7
      vertex 12.2702 -8.58786 7
    endloop
  endfacet
  facet normal 0 0 1
    outer loop
      vertex 12.2702 -8.58786 7
      vertex 10.893 -7.98831 7
      vertex 11.5231 -9.54575 7
    endloop
  endfacet
  facet normal -0 0 1
    outer loop
      vertex 10.4462 -8.56874 7
      vertex 11.5231 -9.54575 7
      vertex 10.893 -7.98831 7
    endloop
  endfacet
  facet normal 0 0 1
    outer loop
      vertex 11.5231 -9.54575 7
      vertex 10.4462 -8.56874 7
      vertex 10.4494 -10.1207 7
    endloop
  endfacet
  facet normal -0 0 1
    outer loop
      vertex 9.76453 -8.91481 7
      vertex 10.4494 -10.1207 7
      vertex 10.4462 -8.56874 7
    endloop
  endfacet
  facet normal 0 0 1
    outer loop
      vertex 9.76453 -8.91481 7
      vertex 9.18936 -10.3125 7
      vertex 10.4494 -10.1207 7
    endloop
  endfacet
  facet normal -0 0 1
    outer loop
      vertex 8.89935 -9.0295 7
      vertex 9.18936 -10.3125 7
      vertex 9.76453 -8.91481 7
    endloop
  endfacet
  facet normal -0 0 1
    outer loop
      vertex 6.17935 -9.0295 7
      vertex 9.18936 -10.3125 7
      vertex 8.89935 -9.0295 7
    endloop
  endfacet
  facet normal 0 0 1
    outer loop
      vertex 6.17935 -9.0295 7
      vertex 4.68236 -10.3125 7
      vertex 9.18936 -10.3125 7
    endloop
  endfacet
  facet normal 0 0 1
    outer loop
      vertex 6.17935 -5.37349 7
      vertex 4.68236 -10.3125 7
      vertex 6.17935 -9.0295 7
    endloop
  endfacet
  facet normal 0 0 1
    outer loop
      vertex 25.0225 0.56749 7
      vertex 19.3385 -0.762512 7
      vertex 25.0225 -0.762512 7
    endloop
  endfacet
  facet normal 0 0 1
    outer loop
      vertex 17.8415 0.56749 7
      vertex 19.3385 -4.0715 7
      vertex 19.3385 -0.762512 7
    endloop
  endfacet
  facet normal 0 0 1
    outer loop
      vertex 19.3385 -4.0715 7
      vertex 17.8415 0.56749 7
      vertex 19.3385 -5.38449 7
    endloop
  endfacet
  facet normal 0 0 1
    outer loop
      vertex 17.8415 -10.3125 7
      vertex 19.3385 -5.38449 7
      vertex 17.8415 0.56749 7
    endloop
  endfacet
  facet normal -0 0 1
    outer loop
      vertex 17.8415 0.56749 7
      vertex 19.3385 -0.762512 7
      vertex 25.0225 0.56749 7
    endloop
  endfacet
  facet normal -0 0 1
    outer loop
      vertex 19.3385 -4.0715 7
      vertex 24.1975 -5.38449 7
      vertex 24.1975 -4.0715 7
    endloop
  endfacet
  facet normal 0 0 1
    outer loop
      vertex 24.1975 -5.38449 7
      vertex 19.3385 -4.0715 7
      vertex 19.3385 -5.38449 7
    endloop
  endfacet
  facet normal -0 0 1
    outer loop
      vertex 19.3385 -8.98349 7
      vertex 25.0685 -10.3125 7
      vertex 25.0685 -8.98349 7
    endloop
  endfacet
  facet normal 0 0 1
    outer loop
      vertex 19.3385 -8.98349 7
      vertex 17.8415 -10.3125 7
      vertex 25.0685 -10.3125 7
    endloop
  endfacet
  facet normal 0 0 1
    outer loop
      vertex 19.3385 -5.38449 7
      vertex 17.8415 -10.3125 7
      vertex 19.3385 -8.98349 7
    endloop
  endfacet
  facet normal 0 0 1
    outer loop
      vertex 38.0255 0.56749 7
      vertex 34.6335 -0.716507 7
      vertex 38.0255 -0.716507 7
    endloop
  endfacet
  facet normal 0 0 1
    outer loop
      vertex 34.6335 -0.716507 7
      vertex 33.1365 -0.716507 7
      vertex 34.6335 -10.3125 7
    endloop
  endfacet
  facet normal 0 0 1
    outer loop
      vertex 38.0255 0.56749 7
      vertex 33.1365 -0.716507 7
      vertex 34.6335 -0.716507 7
    endloop
  endfacet
  facet normal -0 0 1
    outer loop
      vertex 29.7295 0.56749 7
      vertex 33.1365 -0.716507 7
      vertex 38.0255 0.56749 7
    endloop
  endfacet
  facet normal 0 0 1
    outer loop
      vertex 33.1365 -0.716507 7
      vertex 29.7295 0.56749 7
      vertex 29.7295 -0.716507 7
    endloop
  endfacet
  facet normal 0 0 1
    outer loop
      vertex 34.6335 -10.3125 7
      vertex 33.1365 -0.716507 7
      vertex 33.1365 -10.3125 7
    endloop
  endfacet
  facet normal 0 0 1
    outer loop
      vertex 50.5431 0.56749 7
      vertex 47.1511 -0.716507 7
      vertex 50.5431 -0.716507 7
    endloop
  endfacet
  facet normal 0 0 1
    outer loop
      vertex 47.1511 -0.716507 7
      vertex 45.6541 -0.716507 7
      vertex 47.1511 -10.3125 7
    endloop
  endfacet
  facet normal 0 0 1
    outer loop
      vertex 50.5431 0.56749 7
      vertex 45.6541 -0.716507 7
      vertex 47.1511 -0.716507 7
    endloop
  endfacet
  facet normal -0 0 1
    outer loop
      vertex 42.2471 0.56749 7
      vertex 45.6541 -0.716507 7
      vertex 50.5431 0.56749 7
    endloop
  endfacet
  facet normal 0 0 1
    outer loop
      vertex 45.6541 -0.716507 7
      vertex 42.2471 0.56749 7
      vertex 42.2471 -0.716507 7
    endloop
  endfacet
  facet normal 0 0 1
    outer loop
      vertex 47.1511 -10.3125 7
      vertex 45.6541 -0.716507 7
      vertex 45.6541 -10.3125 7
    endloop
  endfacet
  facet normal 0 0 1
    outer loop
      vertex 62.7247 0.56749 7
      vertex 57.0407 -0.762512 7
      vertex 62.7247 -0.762512 7
    endloop
  endfacet
  facet normal 0 0 1
    outer loop
      vertex 55.5437 0.56749 7
      vertex 57.0407 -4.0715 7
      vertex 57.0407 -0.762512 7
    endloop
  endfacet
  facet normal 0 0 1
    outer loop
      vertex 57.0407 -4.0715 7
      vertex 55.5437 0.56749 7
      vertex 57.0407 -5.38449 7
    endloop
  endfacet
  facet normal 0 0 1
    outer loop
      vertex 55.5437 -10.3125 7
      vertex 57.0407 -5.38449 7
      vertex 55.5437 0.56749 7
    endloop
  endfacet
  facet normal -0 0 1
    outer loop
      vertex 55.5437 0.56749 7
      vertex 57.0407 -0.762512 7
      vertex 62.7247 0.56749 7
    endloop
  endfacet
  facet normal -0 0 1
    outer loop
      vertex 57.0407 -4.0715 7
      vertex 61.8997 -5.38449 7
      vertex 61.8997 -4.0715 7
    endloop
  endfacet
  facet normal 0 0 1
    outer loop
      vertex 61.8997 -5.38449 7
      vertex 57.0407 -4.0715 7
      vertex 57.0407 -5.38449 7
    endloop
  endfacet
  facet normal -0 0 1
    outer loop
      vertex 57.0407 -8.98349 7
      vertex 62.7707 -10.3125 7
      vertex 62.7707 -8.98349 7
    endloop
  endfacet
  facet normal 0 0 1
    outer loop
      vertex 57.0407 -8.98349 7
      vertex 55.5437 -10.3125 7
      vertex 62.7707 -10.3125 7
    endloop
  endfacet
  facet normal 0 0 1
    outer loop
      vertex 57.0407 -5.38449 7
      vertex 55.5437 -10.3125 7
      vertex 57.0407 -8.98349 7
    endloop
  endfacet
  facet normal -0 0 1
    outer loop
      vertex 74.3527 -2.7135 7
      vertex 75.8197 -2.7285 7
      vertex 75.5484 -1.31955 7
    endloop
  endfacet
  facet normal 0 0 1
    outer loop
      vertex 75.8197 -2.7285 7
      vertex 74.3527 -2.7135 7
      vertex 75.6689 -3.76244 7
    endloop
  endfacet
  facet normal 0 0 1
    outer loop
      vertex 74.1772 -1.79208 7
      vertex 75.5484 -1.31955 7
      vertex 74.7959 -0.285889 7
    endloop
  endfacet
  facet normal -0 0 1
    outer loop
      vertex 74.1883 -3.62079 7
      vertex 75.6689 -3.76244 7
      vertex 74.3527 -2.7135 7
    endloop
  endfacet
  facet normal 0 0 1
    outer loop
      vertex 75.6689 -3.76244 7
      vertex 74.1883 -3.62079 7
      vertex 75.2102 -4.68338 7
    endloop
  endfacet
  facet normal 0 0 1
    outer loop
      vertex 75.5484 -1.31955 7
      vertex 74.1772 -1.79208 7
      vertex 74.3527 -2.7135 7
    endloop
  endfacet
  facet normal 0 0 1
    outer loop
      vertex 74.7959 -0.285889 7
      vertex 73.6823 -1.16214 7
      vertex 74.1772 -1.79208 7
    endloop
  endfacet
  facet normal 0 0 1
    outer loop
      vertex 73.6537 0.350479 7
      vertex 73.6823 -1.16214 7
      vertex 74.7959 -0.285889 7
    endloop
  endfacet
  facet normal 0 0 1
    outer loop
      vertex 73.6537 0.350479 7
      vertex 72.9153 -0.800873 7
      vertex 73.6823 -1.16214 7
    endloop
  endfacet
  facet normal 0 0 1
    outer loop
      vertex 72.2137 0.56749 7
      vertex 72.9153 -0.800873 7
      vertex 73.6537 0.350479 7
    endloop
  endfacet
  facet normal 0 0 1
    outer loop
      vertex 72.2137 0.56749 7
      vertex 71.9237 -0.685501 7
      vertex 72.9153 -0.800873 7
    endloop
  endfacet
  facet normal 0 0 1
    outer loop
      vertex 72.2137 0.56749 7
      vertex 69.7077 -0.685501 7
      vertex 71.9237 -0.685501 7
    endloop
  endfacet
  facet normal 0 0 1
    outer loop
      vertex 68.2107 0.56749 7
      vertex 69.7077 -4.77251 7
      vertex 69.7077 -0.685501 7
    endloop
  endfacet
  facet normal 0 0 1
    outer loop
      vertex 68.2107 -10.3125 7
      vertex 69.7077 -4.77251 7
      vertex 68.2107 0.56749 7
    endloop
  endfacet
  facet normal -0 0 1
    outer loop
      vertex 68.2107 0.56749 7
      vertex 69.7077 -0.685501 7
      vertex 72.2137 0.56749 7
    endloop
  endfacet
  facet normal 0 0 1
    outer loop
      vertex 69.7077 -4.77251 7
      vertex 68.2107 -10.3125 7
      vertex 69.7077 -6.02449 7
    endloop
  endfacet
  facet normal 0 0 1
    outer loop
      vertex 69.7077 -6.02449 7
      vertex 68.2107 -10.3125 7
      vertex 69.7077 -10.3125 7
    endloop
  endfacet
  facet normal -0 0 1
    outer loop
      vertex 73.7145 -4.2635 7
      vertex 75.2102 -4.68338 7
      vertex 74.1883 -3.62079 7
    endloop
  endfacet
  facet normal 0 0 1
    outer loop
      vertex 75.2102 -4.68338 7
      vertex 73.7145 -4.2635 7
      vertex 74.4334 -5.41289 7
    endloop
  endfacet
  facet normal -0 0 1
    outer loop
      vertex 72.9601 -4.64598 7
      vertex 74.4334 -5.41289 7
      vertex 73.7145 -4.2635 7
    endloop
  endfacet
  facet normal 0 0 1
    outer loop
      vertex 74.4334 -5.41289 7
      vertex 72.9601 -4.64598 7
      vertex 73.3287 -5.8725 7
    endloop
  endfacet
  facet normal 0 0 1
    outer loop
      vertex 73.3287 -5.8725 7
      vertex 74.6887 -10.3125 7
      vertex 76.3387 -10.3125 7
    endloop
  endfacet
  facet normal -0 0 1
    outer loop
      vertex 71.9537 -4.77251 7
      vertex 73.3287 -5.8725 7
      vertex 72.9601 -4.64598 7
    endloop
  endfacet
  facet normal 0 0 1
    outer loop
      vertex 71.7857 -6.02449 7
      vertex 73.3287 -5.8725 7
      vertex 71.9537 -4.77251 7
    endloop
  endfacet
  facet normal 0 0 1
    outer loop
      vertex 73.3287 -5.8725 7
      vertex 71.7857 -6.02449 7
      vertex 74.6887 -10.3125 7
    endloop
  endfacet
  facet normal -0 0 1
    outer loop
      vertex 69.7077 -4.77251 7
      vertex 71.7857 -6.02449 7
      vertex 71.9537 -4.77251 7
    endloop
  endfacet
  facet normal 0 0 1
    outer loop
      vertex 71.7857 -6.02449 7
      vertex 69.7077 -4.77251 7
      vertex 69.7077 -6.02449 7
    endloop
  endfacet
  facet normal 0.472064 -0.881564 0
    outer loop
      vertex 10.4494 -10.1207 3
      vertex 11.5231 -9.54575 7
      vertex 10.4494 -10.1207 7
    endloop
  endfacet
  facet normal 0.472064 -0.881564 0
    outer loop
      vertex 11.5231 -9.54575 7
      vertex 10.4494 -10.1207 3
      vertex 11.5231 -9.54575 3
    endloop
  endfacet
  facet normal 0.788524 -0.615004 0
    outer loop
      vertex 11.5231 -9.54575 7
      vertex 12.2702 -8.58786 3
      vertex 12.2702 -8.58786 7
    endloop
  endfacet
  facet normal 0.788524 -0.615004 0
    outer loop
      vertex 12.2702 -8.58786 3
      vertex 11.5231 -9.54575 7
      vertex 11.5231 -9.54575 3
    endloop
  endfacet
  facet normal 0.97884 -0.204625 0
    outer loop
      vertex 12.2702 -8.58786 7
      vertex 12.5504 -7.2475 3
      vertex 12.5504 -7.2475 7
    endloop
  endfacet
  facet normal 0.97884 -0.204625 0
    outer loop
      vertex 12.5504 -7.2475 3
      vertex 12.2702 -8.58786 7
      vertex 12.2702 -8.58786 3
    endloop
  endfacet
  facet normal 0.989267 0.146122 0
    outer loop
      vertex 12.5504 -7.2475 7
      vertex 12.4164 -6.3403 3
      vertex 12.4164 -6.3403 7
    endloop
  endfacet
  facet normal 0.989267 0.146122 0
    outer loop
      vertex 12.4164 -6.3403 3
      vertex 12.5504 -7.2475 7
      vertex 12.5504 -7.2475 3
    endloop
  endfacet
  facet normal 0.891094 0.45382 0
    outer loop
      vertex 12.4164 -6.3403 7
      vertex 12.0176 -5.55724 3
      vertex 12.0176 -5.55724 7
    endloop
  endfacet
  facet normal 0.891094 0.45382 0
    outer loop
      vertex 12.0176 -5.55724 3
      vertex 12.4164 -6.3403 7
      vertex 12.4164 -6.3403 3
    endloop
  endfacet
  facet normal 0.671364 0.741128 -0
    outer loop
      vertex 12.0176 -5.55724 3
      vertex 11.3581 -4.95982 7
      vertex 12.0176 -5.55724 7
    endloop
  endfacet
  facet normal 0.671364 0.741128 0
    outer loop
      vertex 11.3581 -4.95982 7
      vertex 12.0176 -5.55724 3
      vertex 11.3581 -4.95982 3
    endloop
  endfacet
  facet normal 0.357306 0.933987 -0
    outer loop
      vertex 11.3581 -4.95982 3
      vertex 10.4424 -4.60951 7
      vertex 11.3581 -4.95982 7
    endloop
  endfacet
  facet normal 0.357306 0.933987 0
    outer loop
      vertex 10.4424 -4.60951 7
      vertex 11.3581 -4.95982 3
      vertex 10.4424 -4.60951 3
    endloop
  endfacet
  facet normal 1 -0 0
    outer loop
      vertex 10.4424 -4.60951 7
      vertex 10.4424 -4.59351 3
      vertex 10.4424 -4.59351 7
    endloop
  endfacet
  facet normal 1 0 0
    outer loop
      vertex 10.4424 -4.59351 3
      vertex 10.4424 -4.60951 7
      vertex 10.4424 -4.60951 3
    endloop
  endfacet
  facet normal 0.455293 -0.890342 0
    outer loop
      vertex 10.4424 -4.59351 3
      vertex 11.2244 -4.19362 7
      vertex 10.4424 -4.59351 7
    endloop
  endfacet
  facet normal 0.455293 -0.890342 0
    outer loop
      vertex 11.2244 -4.19362 7
      vertex 10.4424 -4.59351 3
      vertex 11.2244 -4.19362 3
    endloop
  endfacet
  facet normal 0.707417 -0.706797 0
    outer loop
      vertex 11.2244 -4.19362 7
      vertex 11.7829 -3.63463 3
      vertex 11.7829 -3.63463 7
    endloop
  endfacet
  facet normal 0.707417 -0.706797 0
    outer loop
      vertex 11.7829 -3.63463 3
      vertex 11.2244 -4.19362 7
      vertex 11.2244 -4.19362 3
    endloop
  endfacet
  facet normal 0.898135 -0.439719 0
    outer loop
      vertex 11.7829 -3.63463 7
      vertex 12.1178 -2.95059 3
      vertex 12.1178 -2.95059 7
    endloop
  endfacet
  facet normal 0.898135 -0.439719 0
    outer loop
      vertex 12.1178 -2.95059 3
      vertex 11.7829 -3.63463 7
      vertex 11.7829 -3.63463 3
    endloop
  endfacet
  facet normal 0.989793 -0.142515 0
    outer loop
      vertex 12.1178 -2.95059 7
      vertex 12.2294 -2.17551 3
      vertex 12.2294 -2.17551 7
    endloop
  endfacet
  facet normal 0.989793 -0.142515 0
    outer loop
      vertex 12.2294 -2.17551 3
      vertex 12.1178 -2.95059 7
      vertex 12.1178 -2.95059 3
    endloop
  endfacet
  facet normal 0.9828 0.184674 0
    outer loop
      vertex 12.2294 -2.17551 7
      vertex 12.0053 -0.982895 3
      vertex 12.0053 -0.982895 7
    endloop
  endfacet
  facet normal 0.9828 0.184674 0
    outer loop
      vertex 12.0053 -0.982895 3
      vertex 12.2294 -2.17551 7
      vertex 12.2294 -2.17551 3
    endloop
  endfacet
  facet normal 0.801214 0.598378 0
    outer loop
      vertex 12.0053 -0.982895 7
      vertex 11.3645 -0.124878 3
      vertex 11.3645 -0.124878 7
    endloop
  endfacet
  facet normal 0.801214 0.598378 0
    outer loop
      vertex 11.3645 -0.124878 3
      vertex 12.0053 -0.982895 7
      vertex 12.0053 -0.982895 3
    endloop
  endfacet
  facet normal 0.456522 0.889712 -0
    outer loop
      vertex 11.3645 -0.124878 3
      vertex 10.3541 0.39357 7
      vertex 11.3645 -0.124878 7
    endloop
  endfacet
  facet normal 0.456522 0.889712 0
    outer loop
      vertex 10.3541 0.39357 7
      vertex 11.3645 -0.124878 3
      vertex 10.3541 0.39357 3
    endloop
  endfacet
  facet normal 0.129401 0.991592 -0
    outer loop
      vertex 10.3541 0.39357 3
      vertex 9.02136 0.56749 7
      vertex 10.3541 0.39357 7
    endloop
  endfacet
  facet normal 0.129401 0.991592 0
    outer loop
      vertex 9.02136 0.56749 7
      vertex 10.3541 0.39357 3
      vertex 9.02136 0.56749 3
    endloop
  endfacet
  facet normal 0 1 -0
    outer loop
      vertex 9.02136 0.56749 3
      vertex 4.68236 0.56749 7
      vertex 9.02136 0.56749 7
    endloop
  endfacet
  facet normal 0 1 0
    outer loop
      vertex 4.68236 0.56749 7
      vertex 9.02136 0.56749 3
      vertex 4.68236 0.56749 3
    endloop
  endfacet
  facet normal -1 0 0
    outer loop
      vertex 4.68236 -10.3125 3
      vertex 4.68236 0.56749 7
      vertex 4.68236 0.56749 3
    endloop
  endfacet
  facet normal -1 -0 0
    outer loop
      vertex 4.68236 0.56749 7
      vertex 4.68236 -10.3125 3
      vertex 4.68236 -10.3125 7
    endloop
  endfacet
  facet normal 0 -1 0
    outer loop
      vertex 4.68236 -10.3125 3
      vertex 9.18936 -10.3125 7
      vertex 4.68236 -10.3125 7
    endloop
  endfacet
  facet normal 0 -1 -0
    outer loop
      vertex 9.18936 -10.3125 7
      vertex 4.68236 -10.3125 3
      vertex 9.18936 -10.3125 3
    endloop
  endfacet
  facet normal 0.150484 -0.988612 0
    outer loop
      vertex 9.18936 -10.3125 3
      vertex 10.4494 -10.1207 7
      vertex 9.18936 -10.3125 7
    endloop
  endfacet
  facet normal 0.150484 -0.988612 0
    outer loop
      vertex 10.4494 -10.1207 7
      vertex 9.18936 -10.3125 3
      vertex 10.4494 -10.1207 3
    endloop
  endfacet
  facet normal 1 -0 0
    outer loop
      vertex 6.17935 -4.10451 7
      vertex 6.17935 -0.716507 3
      vertex 6.17935 -0.716507 7
    endloop
  endfacet
  facet normal 1 0 0
    outer loop
      vertex 6.17935 -0.716507 3
      vertex 6.17935 -4.10451 7
      vertex 6.17935 -4.10451 3
    endloop
  endfacet
  facet normal 0 -1 0
    outer loop
      vertex 6.17935 -0.716507 3
      vertex 8.74635 -0.716507 7
      vertex 6.17935 -0.716507 7
    endloop
  endfacet
  facet normal 0 -1 -0
    outer loop
      vertex 8.74635 -0.716507 7
      vertex 6.17935 -0.716507 3
      vertex 8.74635 -0.716507 3
    endloop
  endfacet
  facet normal -0.116258 -0.993219 0
    outer loop
      vertex 8.74635 -0.716507 3
      vertex 9.55132 -0.81073 7
      vertex 8.74635 -0.716507 7
    endloop
  endfacet
  facet normal -0.116258 -0.993219 -0
    outer loop
      vertex 9.55132 -0.81073 7
      vertex 8.74635 -0.716507 3
      vertex 9.55132 -0.81073 3
    endloop
  endfacet
  facet normal -0.419248 -0.907872 0
    outer loop
      vertex 9.55132 -0.81073 3
      vertex 10.1902 -1.10576 7
      vertex 9.55132 -0.81073 7
    endloop
  endfacet
  facet normal -0.419248 -0.907872 -0
    outer loop
      vertex 10.1902 -1.10576 7
      vertex 9.55132 -0.81073 3
      vertex 10.1902 -1.10576 3
    endloop
  endfacet
  facet normal -0.773642 -0.633623 0
    outer loop
      vertex 10.6115 -1.62016 3
      vertex 10.1902 -1.10576 7
      vertex 10.1902 -1.10576 3
    endloop
  endfacet
  facet normal -0.773642 -0.633623 0
    outer loop
      vertex 10.1902 -1.10576 7
      vertex 10.6115 -1.62016 3
      vertex 10.6115 -1.62016 7
    endloop
  endfacet
  facet normal -0.980221 -0.197907 0
    outer loop
      vertex 10.7634 -2.37251 3
      vertex 10.6115 -1.62016 7
      vertex 10.6115 -1.62016 3
    endloop
  endfacet
  facet normal -0.980221 -0.197907 0
    outer loop
      vertex 10.6115 -1.62016 7
      vertex 10.7634 -2.37251 3
      vertex 10.7634 -2.37251 7
    endloop
  endfacet
  facet normal -0.979313 0.202352 0
    outer loop
      vertex 10.6068 -3.1304 3
      vertex 10.7634 -2.37251 7
      vertex 10.7634 -2.37251 3
    endloop
  endfacet
  facet normal -0.979313 0.202352 0
    outer loop
      vertex 10.7634 -2.37251 7
      vertex 10.6068 -3.1304 3
      vertex 10.6068 -3.1304 7
    endloop
  endfacet
  facet normal -0.781773 0.623564 0
    outer loop
      vertex 10.1751 -3.67163 3
      vertex 10.6068 -3.1304 7
      vertex 10.6068 -3.1304 3
    endloop
  endfacet
  facet normal -0.781773 0.623564 0
    outer loop
      vertex 10.6068 -3.1304 7
      vertex 10.1751 -3.67163 3
      vertex 10.1751 -3.67163 7
    endloop
  endfacet
  facet normal -0.44712 0.894474 0
    outer loop
      vertex 10.1751 -3.67163 3
      vertex 9.52557 -3.99631 7
      vertex 10.1751 -3.67163 7
    endloop
  endfacet
  facet normal -0.44712 0.894474 0
    outer loop
      vertex 9.52557 -3.99631 7
      vertex 10.1751 -3.67163 3
      vertex 9.52557 -3.99631 3
    endloop
  endfacet
  facet normal -0.13237 0.9912 0
    outer loop
      vertex 9.52557 -3.99631 3
      vertex 8.71536 -4.10451 7
      vertex 9.52557 -3.99631 7
    endloop
  endfacet
  facet normal -0.13237 0.9912 0
    outer loop
      vertex 8.71536 -4.10451 7
      vertex 9.52557 -3.99631 3
      vertex 8.71536 -4.10451 3
    endloop
  endfacet
  facet normal 0 1 -0
    outer loop
      vertex 8.71536 -4.10451 3
      vertex 6.17935 -4.10451 7
      vertex 8.71536 -4.10451 7
    endloop
  endfacet
  facet normal 0 1 0
    outer loop
      vertex 6.17935 -4.10451 7
      vertex 8.71536 -4.10451 3
      vertex 6.17935 -4.10451 3
    endloop
  endfacet
  facet normal 1 -0 0
    outer loop
      vertex 6.17935 -9.0295 7
      vertex 6.17935 -5.37349 3
      vertex 6.17935 -5.37349 7
    endloop
  endfacet
  facet normal 1 0 0
    outer loop
      vertex 6.17935 -5.37349 3
      vertex 6.17935 -9.0295 7
      vertex 6.17935 -9.0295 3
    endloop
  endfacet
  facet normal 0 -1 0
    outer loop
      vertex 6.17935 -5.37349 3
      vertex 8.89935 -5.37349 7
      vertex 6.17935 -5.37349 7
    endloop
  endfacet
  facet normal 0 -1 -0
    outer loop
      vertex 8.89935 -5.37349 7
      vertex 6.17935 -5.37349 3
      vertex 8.89935 -5.37349 3
    endloop
  endfacet
  facet normal -0.119784 -0.9928 0
    outer loop
      vertex 8.89935 -5.37349 3
      vertex 9.77086 -5.47864 7
      vertex 8.89935 -5.37349 7
    endloop
  endfacet
  facet normal -0.119784 -0.9928 -0
    outer loop
      vertex 9.77086 -5.47864 7
      vertex 8.89935 -5.37349 3
      vertex 9.77086 -5.47864 3
    endloop
  endfacet
  facet normal -0.430663 -0.902513 0
    outer loop
      vertex 9.77086 -5.47864 3
      vertex 10.4519 -5.80362 7
      vertex 9.77086 -5.47864 7
    endloop
  endfacet
  facet normal -0.430663 -0.902513 -0
    outer loop
      vertex 10.4519 -5.80362 7
      vertex 9.77086 -5.47864 3
      vertex 10.4519 -5.80362 3
    endloop
  endfacet
  facet normal -0.783688 -0.621154 0
    outer loop
      vertex 10.8951 -6.36279 3
      vertex 10.4519 -5.80362 7
      vertex 10.4519 -5.80362 3
    endloop
  endfacet
  facet normal -0.783688 -0.621154 0
    outer loop
      vertex 10.4519 -5.80362 7
      vertex 10.8951 -6.36279 3
      vertex 10.8951 -6.36279 7
    endloop
  endfacet
  facet normal -0.98133 -0.19233 0
    outer loop
      vertex 11.0534 -7.17049 3
      vertex 10.8951 -6.36279 7
      vertex 10.8951 -6.36279 3
    endloop
  endfacet
  facet normal -0.98133 -0.19233 0
    outer loop
      vertex 10.8951 -6.36279 7
      vertex 11.0534 -7.17049 3
      vertex 11.0534 -7.17049 7
    endloop
  endfacet
  facet normal -0.981304 0.192464 0
    outer loop
      vertex 10.893 -7.98831 3
      vertex 11.0534 -7.17049 7
      vertex 11.0534 -7.17049 3
    endloop
  endfacet
  facet normal -0.981304 0.192464 0
    outer loop
      vertex 11.0534 -7.17049 7
      vertex 10.893 -7.98831 3
      vertex 10.893 -7.98831 7
    endloop
  endfacet
  facet normal -0.792416 0.609981 0
    outer loop
      vertex 10.4462 -8.56874 3
      vertex 10.893 -7.98831 7
      vertex 10.893 -7.98831 3
    endloop
  endfacet
  facet normal -0.792416 0.609981 0
    outer loop
      vertex 10.893 -7.98831 7
      vertex 10.4462 -8.56874 3
      vertex 10.4462 -8.56874 7
    endloop
  endfacet
  facet normal -0.452683 0.891671 0
    outer loop
      vertex 10.4462 -8.56874 3
      vertex 9.76453 -8.91481 7
      vertex 10.4462 -8.56874 7
    endloop
  endfacet
  facet normal -0.452683 0.891671 0
    outer loop
      vertex 9.76453 -8.91481 7
      vertex 10.4462 -8.56874 3
      vertex 9.76453 -8.91481 3
    endloop
  endfacet
  facet normal -0.131412 0.991328 0
    outer loop
      vertex 9.76453 -8.91481 3
      vertex 8.89935 -9.0295 7
      vertex 9.76453 -8.91481 7
    endloop
  endfacet
  facet normal -0.131412 0.991328 0
    outer loop
      vertex 8.89935 -9.0295 7
      vertex 9.76453 -8.91481 3
      vertex 8.89935 -9.0295 3
    endloop
  endfacet
  facet normal 0 1 -0
    outer loop
      vertex 8.89935 -9.0295 3
      vertex 6.17935 -9.0295 7
      vertex 8.89935 -9.0295 7
    endloop
  endfacet
  facet normal 0 1 0
    outer loop
      vertex 6.17935 -9.0295 7
      vertex 8.89935 -9.0295 3
      vertex 6.17935 -9.0295 3
    endloop
  endfacet
  facet normal 0 1 -0
    outer loop
      vertex 25.0685 -8.98349 3
      vertex 19.3385 -8.98349 7
      vertex 25.0685 -8.98349 7
    endloop
  endfacet
  facet normal 0 1 0
    outer loop
      vertex 19.3385 -8.98349 7
      vertex 25.0685 -8.98349 3
      vertex 19.3385 -8.98349 3
    endloop
  endfacet
  facet normal 1 -0 0
    outer loop
      vertex 19.3385 -8.98349 7
      vertex 19.3385 -5.38449 3
      vertex 19.3385 -5.38449 7
    endloop
  endfacet
  facet normal 1 0 0
    outer loop
      vertex 19.3385 -5.38449 3
      vertex 19.3385 -8.98349 7
      vertex 19.3385 -8.98349 3
    endloop
  endfacet
  facet normal 0 -1 0
    outer loop
      vertex 19.3385 -5.38449 3
      vertex 24.1975 -5.38449 7
      vertex 19.3385 -5.38449 7
    endloop
  endfacet
  facet normal 0 -1 -0
    outer loop
      vertex 24.1975 -5.38449 7
      vertex 19.3385 -5.38449 3
      vertex 24.1975 -5.38449 3
    endloop
  endfacet
  facet normal 1 -0 0
    outer loop
      vertex 24.1975 -5.38449 7
      vertex 24.1975 -4.0715 3
      vertex 24.1975 -4.0715 7
    endloop
  endfacet
  facet normal 1 0 0
    outer loop
      vertex 24.1975 -4.0715 3
      vertex 24.1975 -5.38449 7
      vertex 24.1975 -5.38449 3
    endloop
  endfacet
  facet normal 0 1 -0
    outer loop
      vertex 24.1975 -4.0715 3
      vertex 19.3385 -4.0715 7
      vertex 24.1975 -4.0715 7
    endloop
  endfacet
  facet normal 0 1 0
    outer loop
      vertex 19.3385 -4.0715 7
      vertex 24.1975 -4.0715 3
      vertex 19.3385 -4.0715 3
    endloop
  endfacet
  facet normal 1 -0 0
    outer loop
      vertex 19.3385 -4.0715 7
      vertex 19.3385 -0.762512 3
      vertex 19.3385 -0.762512 7
    endloop
  endfacet
  facet normal 1 0 0
    outer loop
      vertex 19.3385 -0.762512 3
      vertex 19.3385 -4.0715 7
      vertex 19.3385 -4.0715 3
    endloop
  endfacet
  facet normal 0 -1 0
    outer loop
      vertex 19.3385 -0.762512 3
      vertex 25.0225 -0.762512 7
      vertex 19.3385 -0.762512 7
    endloop
  endfacet
  facet normal 0 -1 -0
    outer loop
      vertex 25.0225 -0.762512 7
      vertex 19.3385 -0.762512 3
      vertex 25.0225 -0.762512 3
    endloop
  endfacet
  facet normal 1 -0 0
    outer loop
      vertex 25.0225 -0.762512 7
      vertex 25.0225 0.56749 3
      vertex 25.0225 0.56749 7
    endloop
  endfacet
  facet normal 1 0 0
    outer loop
      vertex 25.0225 0.56749 3
      vertex 25.0225 -0.762512 7
      vertex 25.0225 -0.762512 3
    endloop
  endfacet
  facet normal 0 1 -0
    outer loop
      vertex 25.0225 0.56749 3
      vertex 17.8415 0.56749 7
      vertex 25.0225 0.56749 7
    endloop
  endfacet
  facet normal 0 1 0
    outer loop
      vertex 17.8415 0.56749 7
      vertex 25.0225 0.56749 3
      vertex 17.8415 0.56749 3
    endloop
  endfacet
  facet normal -1 0 0
    outer loop
      vertex 17.8415 -10.3125 3
      vertex 17.8415 0.56749 7
      vertex 17.8415 0.56749 3
    endloop
  endfacet
  facet normal -1 -0 0
    outer loop
      vertex 17.8415 0.56749 7
      vertex 17.8415 -10.3125 3
      vertex 17.8415 -10.3125 7
    endloop
  endfacet
  facet normal 0 -1 0
    outer loop
      vertex 17.8415 -10.3125 3
      vertex 25.0685 -10.3125 7
      vertex 17.8415 -10.3125 7
    endloop
  endfacet
  facet normal 0 -1 -0
    outer loop
      vertex 25.0685 -10.3125 7
      vertex 17.8415 -10.3125 3
      vertex 25.0685 -10.3125 3
    endloop
  endfacet
  facet normal 1 -0 0
    outer loop
      vertex 25.0685 -10.3125 7
      vertex 25.0685 -8.98349 3
      vertex 25.0685 -8.98349 7
    endloop
  endfacet
  facet normal 1 0 0
    outer loop
      vertex 25.0685 -8.98349 3
      vertex 25.0685 -10.3125 7
      vertex 25.0685 -10.3125 3
    endloop
  endfacet
  facet normal 0 -1 0
    outer loop
      vertex 34.6335 -0.716507 3
      vertex 38.0255 -0.716507 7
      vertex 34.6335 -0.716507 7
    endloop
  endfacet
  facet normal 0 -1 -0
    outer loop
      vertex 38.0255 -0.716507 7
      vertex 34.6335 -0.716507 3
      vertex 38.0255 -0.716507 3
    endloop
  endfacet
  facet normal 1 -0 0
    outer loop
      vertex 38.0255 -0.716507 7
      vertex 38.0255 0.56749 3
      vertex 38.0255 0.56749 7
    endloop
  endfacet
  facet normal 1 0 0
    outer loop
      vertex 38.0255 0.56749 3
      vertex 38.0255 -0.716507 7
      vertex 38.0255 -0.716507 3
    endloop
  endfacet
  facet normal 0 1 -0
    outer loop
      vertex 38.0255 0.56749 3
      vertex 29.7295 0.56749 7
      vertex 38.0255 0.56749 7
    endloop
  endfacet
  facet normal 0 1 0
    outer loop
      vertex 29.7295 0.56749 7
      vertex 38.0255 0.56749 3
      vertex 29.7295 0.56749 3
    endloop
  endfacet
  facet normal -1 0 0
    outer loop
      vertex 29.7295 -0.716507 3
      vertex 29.7295 0.56749 7
      vertex 29.7295 0.56749 3
    endloop
  endfacet
  facet normal -1 -0 0
    outer loop
      vertex 29.7295 0.56749 7
      vertex 29.7295 -0.716507 3
      vertex 29.7295 -0.716507 7
    endloop
  endfacet
  facet normal 0 -1 0
    outer loop
      vertex 29.7295 -0.716507 3
      vertex 33.1365 -0.716507 7
      vertex 29.7295 -0.716507 7
    endloop
  endfacet
  facet normal 0 -1 -0
    outer loop
      vertex 33.1365 -0.716507 7
      vertex 29.7295 -0.716507 3
      vertex 33.1365 -0.716507 3
    endloop
  endfacet
  facet normal -1 0 0
    outer loop
      vertex 33.1365 -10.3125 3
      vertex 33.1365 -0.716507 7
      vertex 33.1365 -0.716507 3
    endloop
  endfacet
  facet normal -1 -0 0
    outer loop
      vertex 33.1365 -0.716507 7
      vertex 33.1365 -10.3125 3
      vertex 33.1365 -10.3125 7
    endloop
  endfacet
  facet normal 0 -1 0
    outer loop
      vertex 33.1365 -10.3125 3
      vertex 34.6335 -10.3125 7
      vertex 33.1365 -10.3125 7
    endloop
  endfacet
  facet normal 0 -1 -0
    outer loop
      vertex 34.6335 -10.3125 7
      vertex 33.1365 -10.3125 3
      vertex 34.6335 -10.3125 3
    endloop
  endfacet
  facet normal 1 -0 0
    outer loop
      vertex 34.6335 -10.3125 7
      vertex 34.6335 -0.716507 3
      vertex 34.6335 -0.716507 7
    endloop
  endfacet
  facet normal 1 0 0
    outer loop
      vertex 34.6335 -0.716507 3
      vertex 34.6335 -10.3125 7
      vertex 34.6335 -10.3125 3
    endloop
  endfacet
  facet normal 0 -1 0
    outer loop
      vertex 47.1511 -0.716507 3
      vertex 50.5431 -0.716507 7
      vertex 47.1511 -0.716507 7
    endloop
  endfacet
  facet normal 0 -1 -0
    outer loop
      vertex 50.5431 -0.716507 7
      vertex 47.1511 -0.716507 3
      vertex 50.5431 -0.716507 3
    endloop
  endfacet
  facet normal 1 -0 0
    outer loop
      vertex 50.5431 -0.716507 7
      vertex 50.5431 0.56749 3
      vertex 50.5431 0.56749 7
    endloop
  endfacet
  facet normal 1 0 0
    outer loop
      vertex 50.5431 0.56749 3
      vertex 50.5431 -0.716507 7
      vertex 50.5431 -0.716507 3
    endloop
  endfacet
  facet normal 0 1 -0
    outer loop
      vertex 50.5431 0.56749 3
      vertex 42.2471 0.56749 7
      vertex 50.5431 0.56749 7
    endloop
  endfacet
  facet normal 0 1 0
    outer loop
      vertex 42.2471 0.56749 7
      vertex 50.5431 0.56749 3
      vertex 42.2471 0.56749 3
    endloop
  endfacet
  facet normal -1 0 0
    outer loop
      vertex 42.2471 -0.716507 3
      vertex 42.2471 0.56749 7
      vertex 42.2471 0.56749 3
    endloop
  endfacet
  facet normal -1 -0 0
    outer loop
      vertex 42.2471 0.56749 7
      vertex 42.2471 -0.716507 3
      vertex 42.2471 -0.716507 7
    endloop
  endfacet
  facet normal 0 -1 0
    outer loop
      vertex 42.2471 -0.716507 3
      vertex 45.6541 -0.716507 7
      vertex 42.2471 -0.716507 7
    endloop
  endfacet
  facet normal 0 -1 -0
    outer loop
      vertex 45.6541 -0.716507 7
      vertex 42.2471 -0.716507 3
      vertex 45.6541 -0.716507 3
    endloop
  endfacet
  facet normal -1 0 0
    outer loop
      vertex 45.6541 -10.3125 3
      vertex 45.6541 -0.716507 7
      vertex 45.6541 -0.716507 3
    endloop
  endfacet
  facet normal -1 -0 0
    outer loop
      vertex 45.6541 -0.716507 7
      vertex 45.6541 -10.3125 3
      vertex 45.6541 -10.3125 7
    endloop
  endfacet
  facet normal 0 -1 0
    outer loop
      vertex 45.6541 -10.3125 3
      vertex 47.1511 -10.3125 7
      vertex 45.6541 -10.3125 7
    endloop
  endfacet
  facet normal 0 -1 -0
    outer loop
      vertex 47.1511 -10.3125 7
      vertex 45.6541 -10.3125 3
      vertex 47.1511 -10.3125 3
    endloop
  endfacet
  facet normal 1 -0 0
    outer loop
      vertex 47.1511 -10.3125 7
      vertex 47.1511 -0.716507 3
      vertex 47.1511 -0.716507 7
    endloop
  endfacet
  facet normal 1 0 0
    outer loop
      vertex 47.1511 -0.716507 3
      vertex 47.1511 -10.3125 7
      vertex 47.1511 -10.3125 3
    endloop
  endfacet
  facet normal 0 1 -0
    outer loop
      vertex 62.7707 -8.98349 3
      vertex 57.0407 -8.98349 7
      vertex 62.7707 -8.98349 7
    endloop
  endfacet
  facet normal 0 1 0
    outer loop
      vertex 57.0407 -8.98349 7
      vertex 62.7707 -8.98349 3
      vertex 57.0407 -8.98349 3
    endloop
  endfacet
  facet normal 1 -0 0
    outer loop
      vertex 57.0407 -8.98349 7
      vertex 57.0407 -5.38449 3
      vertex 57.0407 -5.38449 7
    endloop
  endfacet
  facet normal 1 0 0
    outer loop
      vertex 57.0407 -5.38449 3
      vertex 57.0407 -8.98349 7
      vertex 57.0407 -8.98349 3
    endloop
  endfacet
  facet normal 0 -1 0
    outer loop
      vertex 57.0407 -5.38449 3
      vertex 61.8997 -5.38449 7
      vertex 57.0407 -5.38449 7
    endloop
  endfacet
  facet normal 0 -1 -0
    outer loop
      vertex 61.8997 -5.38449 7
      vertex 57.0407 -5.38449 3
      vertex 61.8997 -5.38449 3
    endloop
  endfacet
  facet normal 1 -0 0
    outer loop
      vertex 61.8997 -5.38449 7
      vertex 61.8997 -4.0715 3
      vertex 61.8997 -4.0715 7
    endloop
  endfacet
  facet normal 1 0 0
    outer loop
      vertex 61.8997 -4.0715 3
      vertex 61.8997 -5.38449 7
      vertex 61.8997 -5.38449 3
    endloop
  endfacet
  facet normal 0 1 -0
    outer loop
      vertex 61.8997 -4.0715 3
      vertex 57.0407 -4.0715 7
      vertex 61.8997 -4.0715 7
    endloop
  endfacet
  facet normal 0 1 0
    outer loop
      vertex 57.0407 -4.0715 7
      vertex 61.8997 -4.0715 3
      vertex 57.0407 -4.0715 3
    endloop
  endfacet
  facet normal 1 -0 0
    outer loop
      vertex 57.0407 -4.0715 7
      vertex 57.0407 -0.762512 3
      vertex 57.0407 -0.762512 7
    endloop
  endfacet
  facet normal 1 0 0
    outer loop
      vertex 57.0407 -0.762512 3
      vertex 57.0407 -4.0715 7
      vertex 57.0407 -4.0715 3
    endloop
  endfacet
  facet normal 0 -1 0
    outer loop
      vertex 57.0407 -0.762512 3
      vertex 62.7247 -0.762512 7
      vertex 57.0407 -0.762512 7
    endloop
  endfacet
  facet normal 0 -1 -0
    outer loop
      vertex 62.7247 -0.762512 7
      vertex 57.0407 -0.762512 3
      vertex 62.7247 -0.762512 3
    endloop
  endfacet
  facet normal 1 -0 0
    outer loop
      vertex 62.7247 -0.762512 7
      vertex 62.7247 0.56749 3
      vertex 62.7247 0.56749 7
    endloop
  endfacet
  facet normal 1 0 0
    outer loop
      vertex 62.7247 0.56749 3
      vertex 62.7247 -0.762512 7
      vertex 62.7247 -0.762512 3
    endloop
  endfacet
  facet normal 0 1 -0
    outer loop
      vertex 62.7247 0.56749 3
      vertex 55.5437 0.56749 7
      vertex 62.7247 0.56749 7
    endloop
  endfacet
  facet normal 0 1 0
    outer loop
      vertex 55.5437 0.56749 7
      vertex 62.7247 0.56749 3
      vertex 55.5437 0.56749 3
    endloop
  endfacet
  facet normal -1 0 0
    outer loop
      vertex 55.5437 -10.3125 3
      vertex 55.5437 0.56749 7
      vertex 55.5437 0.56749 3
    endloop
  endfacet
  facet normal -1 -0 0
    outer loop
      vertex 55.5437 0.56749 7
      vertex 55.5437 -10.3125 3
      vertex 55.5437 -10.3125 7
    endloop
  endfacet
  facet normal 0 -1 0
    outer loop
      vertex 55.5437 -10.3125 3
      vertex 62.7707 -10.3125 7
      vertex 55.5437 -10.3125 7
    endloop
  endfacet
  facet normal 0 -1 -0
    outer loop
      vertex 62.7707 -10.3125 7
      vertex 55.5437 -10.3125 3
      vertex 62.7707 -10.3125 3
    endloop
  endfacet
  facet normal 1 -0 0
    outer loop
      vertex 62.7707 -10.3125 7
      vertex 62.7707 -8.98349 3
      vertex 62.7707 -8.98349 7
    endloop
  endfacet
  facet normal 1 0 0
    outer loop
      vertex 62.7707 -8.98349 3
      vertex 62.7707 -10.3125 7
      vertex 62.7707 -10.3125 3
    endloop
  endfacet
  facet normal 0 -1 0
    outer loop
      vertex 69.7077 -6.02449 3
      vertex 71.7857 -6.02449 7
      vertex 69.7077 -6.02449 7
    endloop
  endfacet
  facet normal 0 -1 -0
    outer loop
      vertex 71.7857 -6.02449 7
      vertex 69.7077 -6.02449 3
      vertex 71.7857 -6.02449 3
    endloop
  endfacet
  facet normal -0.828078 -0.560612 0
    outer loop
      vertex 74.6887 -10.3125 3
      vertex 71.7857 -6.02449 7
      vertex 71.7857 -6.02449 3
    endloop
  endfacet
  facet normal -0.828078 -0.560612 0
    outer loop
      vertex 71.7857 -6.02449 7
      vertex 74.6887 -10.3125 3
      vertex 74.6887 -10.3125 7
    endloop
  endfacet
  facet normal 0 -1 0
    outer loop
      vertex 74.6887 -10.3125 3
      vertex 76.3387 -10.3125 7
      vertex 74.6887 -10.3125 7
    endloop
  endfacet
  facet normal 0 -1 -0
    outer loop
      vertex 76.3387 -10.3125 7
      vertex 74.6887 -10.3125 3
      vertex 76.3387 -10.3125 3
    endloop
  endfacet
  facet normal 0.827723 0.561137 0
    outer loop
      vertex 76.3387 -10.3125 7
      vertex 73.3287 -5.8725 3
      vertex 73.3287 -5.8725 7
    endloop
  endfacet
  facet normal 0.827723 0.561137 0
    outer loop
      vertex 73.3287 -5.8725 3
      vertex 76.3387 -10.3125 7
      vertex 76.3387 -10.3125 3
    endloop
  endfacet
  facet normal 0.38413 -0.923279 0
    outer loop
      vertex 73.3287 -5.8725 3
      vertex 74.4334 -5.41289 7
      vertex 73.3287 -5.8725 7
    endloop
  endfacet
  facet normal 0.38413 -0.923279 0
    outer loop
      vertex 74.4334 -5.41289 7
      vertex 73.3287 -5.8725 3
      vertex 74.4334 -5.41289 3
    endloop
  endfacet
  facet normal 0.68457 -0.728947 0
    outer loop
      vertex 74.4334 -5.41289 3
      vertex 75.2102 -4.68338 7
      vertex 74.4334 -5.41289 7
    endloop
  endfacet
  facet normal 0.68457 -0.728947 0
    outer loop
      vertex 75.2102 -4.68338 7
      vertex 74.4334 -5.41289 3
      vertex 75.2102 -4.68338 3
    endloop
  endfacet
  facet normal 0.895114 -0.445837 0
    outer loop
      vertex 75.2102 -4.68338 7
      vertex 75.6689 -3.76244 3
      vertex 75.6689 -3.76244 7
    endloop
  endfacet
  facet normal 0.895114 -0.445837 0
    outer loop
      vertex 75.6689 -3.76244 3
      vertex 75.2102 -4.68338 7
      vertex 75.2102 -4.68338 3
    endloop
  endfacet
  facet normal 0.989531 -0.144323 0
    outer loop
      vertex 75.6689 -3.76244 7
      vertex 75.8197 -2.7285 3
      vertex 75.8197 -2.7285 7
    endloop
  endfacet
  facet normal 0.989531 -0.144323 0
    outer loop
      vertex 75.8197 -2.7285 3
      vertex 75.6689 -3.76244 7
      vertex 75.6689 -3.76244 3
    endloop
  endfacet
  facet normal 0.981961 0.189081 0
    outer loop
      vertex 75.8197 -2.7285 7
      vertex 75.5484 -1.31955 3
      vertex 75.5484 -1.31955 7
    endloop
  endfacet
  facet normal 0.981961 0.189081 0
    outer loop
      vertex 75.5484 -1.31955 3
      vertex 75.8197 -2.7285 7
      vertex 75.8197 -2.7285 3
    endloop
  endfacet
  facet normal 0.808458 0.588554 0
    outer loop
      vertex 75.5484 -1.31955 7
      vertex 74.7959 -0.285889 3
      vertex 74.7959 -0.285889 7
    endloop
  endfacet
  facet normal 0.808458 0.588554 0
    outer loop
      vertex 74.7959 -0.285889 3
      vertex 75.5484 -1.31955 7
      vertex 75.5484 -1.31955 3
    endloop
  endfacet
  facet normal 0.486702 0.873568 -0
    outer loop
      vertex 74.7959 -0.285889 3
      vertex 73.6537 0.350479 7
      vertex 74.7959 -0.285889 7
    endloop
  endfacet
  facet normal 0.486702 0.873568 0
    outer loop
      vertex 73.6537 0.350479 7
      vertex 74.7959 -0.285889 3
      vertex 73.6537 0.350479 3
    endloop
  endfacet
  facet normal 0.149019 0.988834 -0
    outer loop
      vertex 73.6537 0.350479 3
      vertex 72.2137 0.56749 7
      vertex 73.6537 0.350479 7
    endloop
  endfacet
  facet normal 0.149019 0.988834 0
    outer loop
      vertex 72.2137 0.56749 7
      vertex 73.6537 0.350479 3
      vertex 72.2137 0.56749 3
    endloop
  endfacet
  facet normal 0 1 -0
    outer loop
      vertex 72.2137 0.56749 3
      vertex 68.2107 0.56749 7
      vertex 72.2137 0.56749 7
    endloop
  endfacet
  facet normal 0 1 0
    outer loop
      vertex 68.2107 0.56749 7
      vertex 72.2137 0.56749 3
      vertex 68.2107 0.56749 3
    endloop
  endfacet
  facet normal -1 0 0
    outer loop
      vertex 68.2107 -10.3125 3
      vertex 68.2107 0.56749 7
      vertex 68.2107 0.56749 3
    endloop
  endfacet
  facet normal -1 -0 0
    outer loop
      vertex 68.2107 0.56749 7
      vertex 68.2107 -10.3125 3
      vertex 68.2107 -10.3125 7
    endloop
  endfacet
  facet normal 0 -1 0
    outer loop
      vertex 68.2107 -10.3125 3
      vertex 69.7077 -10.3125 7
      vertex 68.2107 -10.3125 7
    endloop
  endfacet
  facet normal 0 -1 -0
    outer loop
      vertex 69.7077 -10.3125 7
      vertex 68.2107 -10.3125 3
      vertex 69.7077 -10.3125 3
    endloop
  endfacet
  facet normal 1 -0 0
    outer loop
      vertex 69.7077 -10.3125 7
      vertex 69.7077 -6.02449 3
      vertex 69.7077 -6.02449 7
    endloop
  endfacet
  facet normal 1 0 0
    outer loop
      vertex 69.7077 -6.02449 3
      vertex 69.7077 -10.3125 7
      vertex 69.7077 -10.3125 3
    endloop
  endfacet
  facet normal 1 -0 0
    outer loop
      vertex 69.7077 -4.77251 7
      vertex 69.7077 -0.685501 3
      vertex 69.7077 -0.685501 7
    endloop
  endfacet
  facet normal 1 0 0
    outer loop
      vertex 69.7077 -0.685501 3
      vertex 69.7077 -4.77251 7
      vertex 69.7077 -4.77251 3
    endloop
  endfacet
  facet normal 0 -1 0
    outer loop
      vertex 69.7077 -0.685501 3
      vertex 71.9237 -0.685501 7
      vertex 69.7077 -0.685501 7
    endloop
  endfacet
  facet normal 0 -1 -0
    outer loop
      vertex 71.9237 -0.685501 7
      vertex 69.7077 -0.685501 3
      vertex 71.9237 -0.685501 3
    endloop
  endfacet
  facet normal -0.11557 -0.993299 0
    outer loop
      vertex 71.9237 -0.685501 3
      vertex 72.9153 -0.800873 7
      vertex 71.9237 -0.685501 7
    endloop
  endfacet
  facet normal -0.11557 -0.993299 -0
    outer loop
      vertex 72.9153 -0.800873 7
      vertex 71.9237 -0.685501 3
      vertex 72.9153 -0.800873 3
    endloop
  endfacet
  facet normal -0.426112 -0.904671 0
    outer loop
      vertex 72.9153 -0.800873 3
      vertex 73.6823 -1.16214 7
      vertex 72.9153 -0.800873 7
    endloop
  endfacet
  facet normal -0.426112 -0.904671 -0
    outer loop
      vertex 73.6823 -1.16214 7
      vertex 72.9153 -0.800873 3
      vertex 73.6823 -1.16214 3
    endloop
  endfacet
  facet normal -0.78635 -0.617781 0
    outer loop
      vertex 74.1772 -1.79208 3
      vertex 73.6823 -1.16214 7
      vertex 73.6823 -1.16214 3
    endloop
  endfacet
  facet normal -0.78635 -0.617781 0
    outer loop
      vertex 73.6823 -1.16214 7
      vertex 74.1772 -1.79208 3
      vertex 74.1772 -1.79208 7
    endloop
  endfacet
  facet normal -0.98234 -0.187103 0
    outer loop
      vertex 74.3527 -2.7135 3
      vertex 74.1772 -1.79208 7
      vertex 74.1772 -1.79208 3
    endloop
  endfacet
  facet normal -0.98234 -0.187103 0
    outer loop
      vertex 74.1772 -1.79208 7
      vertex 74.3527 -2.7135 3
      vertex 74.3527 -2.7135 7
    endloop
  endfacet
  facet normal -0.983977 0.178296 0
    outer loop
      vertex 74.1883 -3.62079 3
      vertex 74.3527 -2.7135 7
      vertex 74.3527 -2.7135 3
    endloop
  endfacet
  facet normal -0.983977 0.178296 0
    outer loop
      vertex 74.3527 -2.7135 7
      vertex 74.1883 -3.62079 3
      vertex 74.1883 -3.62079 7
    endloop
  endfacet
  facet normal -0.804922 0.593381 0
    outer loop
      vertex 73.7145 -4.2635 3
      vertex 74.1883 -3.62079 7
      vertex 74.1883 -3.62079 3
    endloop
  endfacet
  facet normal -0.804922 0.593381 0
    outer loop
      vertex 74.1883 -3.62079 7
      vertex 73.7145 -4.2635 3
      vertex 73.7145 -4.2635 7
    endloop
  endfacet
  facet normal -0.452201 0.891916 0
    outer loop
      vertex 73.7145 -4.2635 3
      vertex 72.9601 -4.64598 7
      vertex 73.7145 -4.2635 7
    endloop
  endfacet
  facet normal -0.452201 0.891916 0
    outer loop
      vertex 72.9601 -4.64598 7
      vertex 73.7145 -4.2635 3
      vertex 72.9601 -4.64598 3
    endloop
  endfacet
  facet normal -0.124743 0.992189 0
    outer loop
      vertex 72.9601 -4.64598 3
      vertex 71.9537 -4.77251 7
      vertex 72.9601 -4.64598 7
    endloop
  endfacet
  facet normal -0.124743 0.992189 0
    outer loop
      vertex 71.9537 -4.77251 7
      vertex 72.9601 -4.64598 3
      vertex 71.9537 -4.77251 3
    endloop
  endfacet
  facet normal 0 1 -0
    outer loop
      vertex 71.9537 -4.77251 3
      vertex 69.7077 -4.77251 7
      vertex 71.9537 -4.77251 7
    endloop
  endfacet
  facet normal 0 1 0
    outer loop
      vertex 69.7077 -4.77251 7
      vertex 71.9537 -4.77251 3
      vertex 69.7077 -4.77251 3
    endloop
  endfacet
endsolid OpenSCAD_Model
